%TF.GenerationSoftware,KiCad,Pcbnew,(5.1.9-0-10_14)*%
%TF.CreationDate,2021-08-30T14:03:39+08:00*%
%TF.ProjectId,FidgetSpinner,46696467-6574-4537-9069-6e6e65722e6b,rev?*%
%TF.SameCoordinates,Original*%
%TF.FileFunction,Legend,Bot*%
%TF.FilePolarity,Positive*%
%FSLAX46Y46*%
G04 Gerber Fmt 4.6, Leading zero omitted, Abs format (unit mm)*
G04 Created by KiCad (PCBNEW (5.1.9-0-10_14)) date 2021-08-30 14:03:39*
%MOMM*%
%LPD*%
G01*
G04 APERTURE LIST*
%ADD10C,0.200000*%
%ADD11C,0.100000*%
%ADD12C,0.120000*%
G04 APERTURE END LIST*
D10*
X102512000Y-87382571D02*
X102845333Y-87382571D01*
X102845333Y-87906380D02*
X102845333Y-86906380D01*
X102369142Y-86906380D01*
X101988190Y-87906380D02*
X101988190Y-87239714D01*
X101988190Y-86906380D02*
X102035809Y-86954000D01*
X101988190Y-87001619D01*
X101940571Y-86954000D01*
X101988190Y-86906380D01*
X101988190Y-87001619D01*
X101083428Y-87906380D02*
X101083428Y-86906380D01*
X101083428Y-87858761D02*
X101178666Y-87906380D01*
X101369142Y-87906380D01*
X101464380Y-87858761D01*
X101512000Y-87811142D01*
X101559619Y-87715904D01*
X101559619Y-87430190D01*
X101512000Y-87334952D01*
X101464380Y-87287333D01*
X101369142Y-87239714D01*
X101178666Y-87239714D01*
X101083428Y-87287333D01*
X100178666Y-87239714D02*
X100178666Y-88049238D01*
X100226285Y-88144476D01*
X100273904Y-88192095D01*
X100369142Y-88239714D01*
X100512000Y-88239714D01*
X100607238Y-88192095D01*
X100178666Y-87858761D02*
X100273904Y-87906380D01*
X100464380Y-87906380D01*
X100559619Y-87858761D01*
X100607238Y-87811142D01*
X100654857Y-87715904D01*
X100654857Y-87430190D01*
X100607238Y-87334952D01*
X100559619Y-87287333D01*
X100464380Y-87239714D01*
X100273904Y-87239714D01*
X100178666Y-87287333D01*
X99321523Y-87858761D02*
X99416761Y-87906380D01*
X99607238Y-87906380D01*
X99702476Y-87858761D01*
X99750095Y-87763523D01*
X99750095Y-87382571D01*
X99702476Y-87287333D01*
X99607238Y-87239714D01*
X99416761Y-87239714D01*
X99321523Y-87287333D01*
X99273904Y-87382571D01*
X99273904Y-87477809D01*
X99750095Y-87573047D01*
X98988190Y-87239714D02*
X98607238Y-87239714D01*
X98845333Y-86906380D02*
X98845333Y-87763523D01*
X98797714Y-87858761D01*
X98702476Y-87906380D01*
X98607238Y-87906380D01*
X98321523Y-87858761D02*
X98178666Y-87906380D01*
X97940571Y-87906380D01*
X97845333Y-87858761D01*
X97797714Y-87811142D01*
X97750095Y-87715904D01*
X97750095Y-87620666D01*
X97797714Y-87525428D01*
X97845333Y-87477809D01*
X97940571Y-87430190D01*
X98131047Y-87382571D01*
X98226285Y-87334952D01*
X98273904Y-87287333D01*
X98321523Y-87192095D01*
X98321523Y-87096857D01*
X98273904Y-87001619D01*
X98226285Y-86954000D01*
X98131047Y-86906380D01*
X97892952Y-86906380D01*
X97750095Y-86954000D01*
X97321523Y-87239714D02*
X97321523Y-88239714D01*
X97321523Y-87287333D02*
X97226285Y-87239714D01*
X97035809Y-87239714D01*
X96940571Y-87287333D01*
X96892952Y-87334952D01*
X96845333Y-87430190D01*
X96845333Y-87715904D01*
X96892952Y-87811142D01*
X96940571Y-87858761D01*
X97035809Y-87906380D01*
X97226285Y-87906380D01*
X97321523Y-87858761D01*
X96416761Y-87906380D02*
X96416761Y-87239714D01*
X96416761Y-86906380D02*
X96464380Y-86954000D01*
X96416761Y-87001619D01*
X96369142Y-86954000D01*
X96416761Y-86906380D01*
X96416761Y-87001619D01*
X95940571Y-87239714D02*
X95940571Y-87906380D01*
X95940571Y-87334952D02*
X95892952Y-87287333D01*
X95797714Y-87239714D01*
X95654857Y-87239714D01*
X95559619Y-87287333D01*
X95512000Y-87382571D01*
X95512000Y-87906380D01*
X95035809Y-87239714D02*
X95035809Y-87906380D01*
X95035809Y-87334952D02*
X94988190Y-87287333D01*
X94892952Y-87239714D01*
X94750095Y-87239714D01*
X94654857Y-87287333D01*
X94607238Y-87382571D01*
X94607238Y-87906380D01*
X93750095Y-87858761D02*
X93845333Y-87906380D01*
X94035809Y-87906380D01*
X94131047Y-87858761D01*
X94178666Y-87763523D01*
X94178666Y-87382571D01*
X94131047Y-87287333D01*
X94035809Y-87239714D01*
X93845333Y-87239714D01*
X93750095Y-87287333D01*
X93702476Y-87382571D01*
X93702476Y-87477809D01*
X94178666Y-87573047D01*
X93273904Y-87906380D02*
X93273904Y-87239714D01*
X93273904Y-87430190D02*
X93226285Y-87334952D01*
X93178666Y-87287333D01*
X93083428Y-87239714D01*
X92988190Y-87239714D01*
X92654857Y-87525428D02*
X91892952Y-87525428D01*
X90940571Y-87906380D02*
X91416761Y-87906380D01*
X91416761Y-86906380D01*
X90607238Y-87382571D02*
X90273904Y-87382571D01*
X90131047Y-87906380D02*
X90607238Y-87906380D01*
X90607238Y-86906380D01*
X90131047Y-86906380D01*
X89702476Y-87906380D02*
X89702476Y-86906380D01*
X89464380Y-86906380D01*
X89321523Y-86954000D01*
X89226285Y-87049238D01*
X89178666Y-87144476D01*
X89131047Y-87334952D01*
X89131047Y-87477809D01*
X89178666Y-87668285D01*
X89226285Y-87763523D01*
X89321523Y-87858761D01*
X89464380Y-87906380D01*
X89702476Y-87906380D01*
X102654857Y-88939714D02*
X102416761Y-89606380D01*
X102178666Y-88939714D01*
X101607238Y-88606380D02*
X101512000Y-88606380D01*
X101416761Y-88654000D01*
X101369142Y-88701619D01*
X101321523Y-88796857D01*
X101273904Y-88987333D01*
X101273904Y-89225428D01*
X101321523Y-89415904D01*
X101369142Y-89511142D01*
X101416761Y-89558761D01*
X101512000Y-89606380D01*
X101607238Y-89606380D01*
X101702476Y-89558761D01*
X101750095Y-89511142D01*
X101797714Y-89415904D01*
X101845333Y-89225428D01*
X101845333Y-88987333D01*
X101797714Y-88796857D01*
X101750095Y-88701619D01*
X101702476Y-88654000D01*
X101607238Y-88606380D01*
X100845333Y-89511142D02*
X100797714Y-89558761D01*
X100845333Y-89606380D01*
X100892952Y-89558761D01*
X100845333Y-89511142D01*
X100845333Y-89606380D01*
X99845333Y-89606380D02*
X100416761Y-89606380D01*
X100131047Y-89606380D02*
X100131047Y-88606380D01*
X100226285Y-88749238D01*
X100321523Y-88844476D01*
X100416761Y-88892095D01*
X99416761Y-89511142D02*
X99369142Y-89558761D01*
X99416761Y-89606380D01*
X99464380Y-89558761D01*
X99416761Y-89511142D01*
X99416761Y-89606380D01*
X98750095Y-88606380D02*
X98654857Y-88606380D01*
X98559619Y-88654000D01*
X98512000Y-88701619D01*
X98464380Y-88796857D01*
X98416761Y-88987333D01*
X98416761Y-89225428D01*
X98464380Y-89415904D01*
X98512000Y-89511142D01*
X98559619Y-89558761D01*
X98654857Y-89606380D01*
X98750095Y-89606380D01*
X98845333Y-89558761D01*
X98892952Y-89511142D01*
X98940571Y-89415904D01*
X98988190Y-89225428D01*
X98988190Y-88987333D01*
X98940571Y-88796857D01*
X98892952Y-88701619D01*
X98845333Y-88654000D01*
X98750095Y-88606380D01*
X97226285Y-89225428D02*
X96464380Y-89225428D01*
X94940571Y-89987333D02*
X94988190Y-89939714D01*
X95083428Y-89796857D01*
X95131047Y-89701619D01*
X95178666Y-89558761D01*
X95226285Y-89320666D01*
X95226285Y-89130190D01*
X95178666Y-88892095D01*
X95131047Y-88749238D01*
X95083428Y-88654000D01*
X94988190Y-88511142D01*
X94940571Y-88463523D01*
X93988190Y-89511142D02*
X94035809Y-89558761D01*
X94178666Y-89606380D01*
X94273904Y-89606380D01*
X94416761Y-89558761D01*
X94512000Y-89463523D01*
X94559619Y-89368285D01*
X94607238Y-89177809D01*
X94607238Y-89034952D01*
X94559619Y-88844476D01*
X94512000Y-88749238D01*
X94416761Y-88654000D01*
X94273904Y-88606380D01*
X94178666Y-88606380D01*
X94035809Y-88654000D01*
X93988190Y-88701619D01*
X93654857Y-89987333D02*
X93607238Y-89939714D01*
X93512000Y-89796857D01*
X93464380Y-89701619D01*
X93416761Y-89558761D01*
X93369142Y-89320666D01*
X93369142Y-89130190D01*
X93416761Y-88892095D01*
X93464380Y-88749238D01*
X93512000Y-88654000D01*
X93607238Y-88511142D01*
X93654857Y-88463523D01*
X92226285Y-88606380D02*
X91988190Y-89606380D01*
X91797714Y-88892095D01*
X91607238Y-89606380D01*
X91369142Y-88606380D01*
X90797714Y-89130190D02*
X90797714Y-89606380D01*
X91131047Y-88606380D02*
X90797714Y-89130190D01*
X90464380Y-88606380D01*
X90226285Y-88606380D02*
X89988190Y-89606380D01*
X89797714Y-88892095D01*
X89607238Y-89606380D01*
X89369142Y-88606380D01*
X100869142Y-90401619D02*
X100821523Y-90354000D01*
X100726285Y-90306380D01*
X100488190Y-90306380D01*
X100392952Y-90354000D01*
X100345333Y-90401619D01*
X100297714Y-90496857D01*
X100297714Y-90592095D01*
X100345333Y-90734952D01*
X100916761Y-91306380D01*
X100297714Y-91306380D01*
X99678666Y-90306380D02*
X99583428Y-90306380D01*
X99488190Y-90354000D01*
X99440571Y-90401619D01*
X99392952Y-90496857D01*
X99345333Y-90687333D01*
X99345333Y-90925428D01*
X99392952Y-91115904D01*
X99440571Y-91211142D01*
X99488190Y-91258761D01*
X99583428Y-91306380D01*
X99678666Y-91306380D01*
X99773904Y-91258761D01*
X99821523Y-91211142D01*
X99869142Y-91115904D01*
X99916761Y-90925428D01*
X99916761Y-90687333D01*
X99869142Y-90496857D01*
X99821523Y-90401619D01*
X99773904Y-90354000D01*
X99678666Y-90306380D01*
X98964380Y-90401619D02*
X98916761Y-90354000D01*
X98821523Y-90306380D01*
X98583428Y-90306380D01*
X98488190Y-90354000D01*
X98440571Y-90401619D01*
X98392952Y-90496857D01*
X98392952Y-90592095D01*
X98440571Y-90734952D01*
X99012000Y-91306380D01*
X98392952Y-91306380D01*
X97440571Y-91306380D02*
X98012000Y-91306380D01*
X97726285Y-91306380D02*
X97726285Y-90306380D01*
X97821523Y-90449238D01*
X97916761Y-90544476D01*
X98012000Y-90592095D01*
X97012000Y-90925428D02*
X96250095Y-90925428D01*
X95250095Y-91306380D02*
X95821523Y-91306380D01*
X95535809Y-91306380D02*
X95535809Y-90306380D01*
X95631047Y-90449238D01*
X95726285Y-90544476D01*
X95821523Y-90592095D01*
X94297714Y-91306380D02*
X94869142Y-91306380D01*
X94583428Y-91306380D02*
X94583428Y-90306380D01*
X94678666Y-90449238D01*
X94773904Y-90544476D01*
X94869142Y-90592095D01*
X93869142Y-90925428D02*
X93107238Y-90925428D01*
X92440571Y-90306380D02*
X92345333Y-90306380D01*
X92250095Y-90354000D01*
X92202476Y-90401619D01*
X92154857Y-90496857D01*
X92107238Y-90687333D01*
X92107238Y-90925428D01*
X92154857Y-91115904D01*
X92202476Y-91211142D01*
X92250095Y-91258761D01*
X92345333Y-91306380D01*
X92440571Y-91306380D01*
X92535809Y-91258761D01*
X92583428Y-91211142D01*
X92631047Y-91115904D01*
X92678666Y-90925428D01*
X92678666Y-90687333D01*
X92631047Y-90496857D01*
X92583428Y-90401619D01*
X92535809Y-90354000D01*
X92440571Y-90306380D01*
X91250095Y-90639714D02*
X91250095Y-91306380D01*
X91488190Y-90258761D02*
X91726285Y-90973047D01*
X91107238Y-90973047D01*
D11*
X104949047Y-106132380D02*
X104949047Y-106846666D01*
X104996666Y-106989523D01*
X105091904Y-107084761D01*
X105234761Y-107132380D01*
X105330000Y-107132380D01*
X103996666Y-107132380D02*
X104472857Y-107132380D01*
X104472857Y-106132380D01*
X103091904Y-107037142D02*
X103139523Y-107084761D01*
X103282380Y-107132380D01*
X103377619Y-107132380D01*
X103520476Y-107084761D01*
X103615714Y-106989523D01*
X103663333Y-106894285D01*
X103710952Y-106703809D01*
X103710952Y-106560952D01*
X103663333Y-106370476D01*
X103615714Y-106275238D01*
X103520476Y-106180000D01*
X103377619Y-106132380D01*
X103282380Y-106132380D01*
X103139523Y-106180000D01*
X103091904Y-106227619D01*
X102377619Y-106132380D02*
X102377619Y-106846666D01*
X102425238Y-106989523D01*
X102520476Y-107084761D01*
X102663333Y-107132380D01*
X102758571Y-107132380D01*
X101425238Y-107132380D02*
X101901428Y-107132380D01*
X101901428Y-106132380D01*
X100520476Y-107037142D02*
X100568095Y-107084761D01*
X100710952Y-107132380D01*
X100806190Y-107132380D01*
X100949047Y-107084761D01*
X101044285Y-106989523D01*
X101091904Y-106894285D01*
X101139523Y-106703809D01*
X101139523Y-106560952D01*
X101091904Y-106370476D01*
X101044285Y-106275238D01*
X100949047Y-106180000D01*
X100806190Y-106132380D01*
X100710952Y-106132380D01*
X100568095Y-106180000D01*
X100520476Y-106227619D01*
X99806190Y-106132380D02*
X99806190Y-106846666D01*
X99853809Y-106989523D01*
X99949047Y-107084761D01*
X100091904Y-107132380D01*
X100187142Y-107132380D01*
X98853809Y-107132380D02*
X99330000Y-107132380D01*
X99330000Y-106132380D01*
X97949047Y-107037142D02*
X97996666Y-107084761D01*
X98139523Y-107132380D01*
X98234761Y-107132380D01*
X98377619Y-107084761D01*
X98472857Y-106989523D01*
X98520476Y-106894285D01*
X98568095Y-106703809D01*
X98568095Y-106560952D01*
X98520476Y-106370476D01*
X98472857Y-106275238D01*
X98377619Y-106180000D01*
X98234761Y-106132380D01*
X98139523Y-106132380D01*
X97996666Y-106180000D01*
X97949047Y-106227619D01*
X97234761Y-106132380D02*
X97234761Y-106846666D01*
X97282380Y-106989523D01*
X97377619Y-107084761D01*
X97520476Y-107132380D01*
X97615714Y-107132380D01*
X96282380Y-107132380D02*
X96758571Y-107132380D01*
X96758571Y-106132380D01*
X95377619Y-107037142D02*
X95425238Y-107084761D01*
X95568095Y-107132380D01*
X95663333Y-107132380D01*
X95806190Y-107084761D01*
X95901428Y-106989523D01*
X95949047Y-106894285D01*
X95996666Y-106703809D01*
X95996666Y-106560952D01*
X95949047Y-106370476D01*
X95901428Y-106275238D01*
X95806190Y-106180000D01*
X95663333Y-106132380D01*
X95568095Y-106132380D01*
X95425238Y-106180000D01*
X95377619Y-106227619D01*
X84637142Y-108815142D02*
X84684761Y-108862761D01*
X84827619Y-108910380D01*
X84922857Y-108910380D01*
X85065714Y-108862761D01*
X85160952Y-108767523D01*
X85208571Y-108672285D01*
X85256190Y-108481809D01*
X85256190Y-108338952D01*
X85208571Y-108148476D01*
X85160952Y-108053238D01*
X85065714Y-107958000D01*
X84922857Y-107910380D01*
X84827619Y-107910380D01*
X84684761Y-107958000D01*
X84637142Y-108005619D01*
X83637142Y-108910380D02*
X83970476Y-108434190D01*
X84208571Y-108910380D02*
X84208571Y-107910380D01*
X83827619Y-107910380D01*
X83732380Y-107958000D01*
X83684761Y-108005619D01*
X83637142Y-108100857D01*
X83637142Y-108243714D01*
X83684761Y-108338952D01*
X83732380Y-108386571D01*
X83827619Y-108434190D01*
X84208571Y-108434190D01*
X83256190Y-108005619D02*
X83208571Y-107958000D01*
X83113333Y-107910380D01*
X82875238Y-107910380D01*
X82780000Y-107958000D01*
X82732380Y-108005619D01*
X82684761Y-108100857D01*
X82684761Y-108196095D01*
X82732380Y-108338952D01*
X83303809Y-108910380D01*
X82684761Y-108910380D01*
X82065714Y-107910380D02*
X81970476Y-107910380D01*
X81875238Y-107958000D01*
X81827619Y-108005619D01*
X81780000Y-108100857D01*
X81732380Y-108291333D01*
X81732380Y-108529428D01*
X81780000Y-108719904D01*
X81827619Y-108815142D01*
X81875238Y-108862761D01*
X81970476Y-108910380D01*
X82065714Y-108910380D01*
X82160952Y-108862761D01*
X82208571Y-108815142D01*
X82256190Y-108719904D01*
X82303809Y-108529428D01*
X82303809Y-108291333D01*
X82256190Y-108100857D01*
X82208571Y-108005619D01*
X82160952Y-107958000D01*
X82065714Y-107910380D01*
X81399047Y-107910380D02*
X80780000Y-107910380D01*
X81113333Y-108291333D01*
X80970476Y-108291333D01*
X80875238Y-108338952D01*
X80827619Y-108386571D01*
X80780000Y-108481809D01*
X80780000Y-108719904D01*
X80827619Y-108815142D01*
X80875238Y-108862761D01*
X80970476Y-108910380D01*
X81256190Y-108910380D01*
X81351428Y-108862761D01*
X81399047Y-108815142D01*
X80399047Y-108005619D02*
X80351428Y-107958000D01*
X80256190Y-107910380D01*
X80018095Y-107910380D01*
X79922857Y-107958000D01*
X79875238Y-108005619D01*
X79827619Y-108100857D01*
X79827619Y-108196095D01*
X79875238Y-108338952D01*
X80446666Y-108910380D01*
X79827619Y-108910380D01*
X78732380Y-108910380D02*
X78208571Y-108243714D01*
X78732380Y-108243714D02*
X78208571Y-108910380D01*
X77922857Y-107910380D02*
X77303809Y-107910380D01*
X77637142Y-108291333D01*
X77494285Y-108291333D01*
X77399047Y-108338952D01*
X77351428Y-108386571D01*
X77303809Y-108481809D01*
X77303809Y-108719904D01*
X77351428Y-108815142D01*
X77399047Y-108862761D01*
X77494285Y-108910380D01*
X77780000Y-108910380D01*
X77875238Y-108862761D01*
X77922857Y-108815142D01*
D12*
%TO.C,BT3*%
X111890000Y-82125000D02*
G75*
G02*
X123110000Y-82125000I5610000J12435000D01*
G01*
X123110000Y-85300000D02*
X123110000Y-82125000D01*
X111890000Y-85300000D02*
X123110000Y-85300000D01*
X111890000Y-82125000D02*
X111890000Y-85300000D01*
%TO.C,BT2*%
X109535974Y-119234098D02*
G75*
G02*
X103925974Y-128950903I7964026J-11075902D01*
G01*
X101176343Y-127363403D02*
X103925974Y-128950903D01*
X106786343Y-117646597D02*
X101176343Y-127363403D01*
X109535974Y-119234097D02*
X106786343Y-117646597D01*
%TO.C,BT1*%
X78574026Y-98640902D02*
G75*
G02*
X72964026Y-88924097I-13574026J-1359098D01*
G01*
X75713657Y-87336597D02*
X72964026Y-88924097D01*
X81323657Y-97053403D02*
X75713657Y-87336597D01*
X78574026Y-98640903D02*
X81323657Y-97053403D01*
%TD*%
M02*
