M48
; DRILL file {KiCad (5.1.9-0-10_14)} date Monday, August 30, 2021 at 02:03:37 PM
; FORMAT={-:-/ absolute / inch / decimal}
; #@! TF.CreationDate,2021-08-30T14:03:37+08:00
; #@! TF.GenerationSoftware,Kicad,Pcbnew,(5.1.9-0-10_14)
; #@! TF.FileFunction,Plated,1,2,PTH
FMAT,2
INCH
T1C0.0157
T2C0.0394
T3C0.0512
%
G90
G05
T1
X2.15Y-3.825
X2.175Y-4.125
X2.2Y-3.725
X2.375Y-3.55
X2.375Y-3.65
X2.375Y-3.925
X2.475Y-4.35
X2.5Y-3.575
X2.505Y-3.845
X2.525Y-4.05
X2.55Y-3.5
X2.675Y-4.05
X2.725Y-3.725
X2.775Y-4.35
X2.825Y-4.05
X2.85Y-3.5
X2.85Y-3.75
X2.905Y-3.54
X2.95Y-3.675
X2.95Y-3.825
X3.0Y-4.05
X3.1Y-3.825
X3.15Y-4.075
X3.15Y-4.35
X3.205Y-3.585
X3.225Y-4.375
X3.23Y-3.835
X3.3Y-3.6
X3.3Y-3.95
X3.35Y-3.55
X3.375Y-3.4
X3.4Y-3.5
X3.45Y-3.375
X3.45Y-3.45
X3.46Y-4.05
X3.525Y-3.775
X3.595Y-3.925
X3.6Y-3.725
X3.625Y-4.25
X3.65Y-3.6
X3.7Y-3.65
X3.75Y-4.4
X3.85Y-4.7
X3.875Y-3.4
X3.925Y-3.645
X3.95Y-3.3
X3.975Y-3.475
X3.9934Y-3.3201
X4.0Y-3.425
X4.025Y-3.25
X4.025Y-3.3435
X4.0289Y-3.2039
X4.04Y-2.885
X4.1Y-3.0
X4.1Y-3.55
X4.1348Y-3.3652
X4.15Y-4.385
X4.1628Y-3.1943
X4.175Y-3.15
X4.175Y-3.625
X4.18Y-3.08
X4.19Y-3.49
X4.235Y-5.135
X4.245Y-4.07
X4.25Y-3.425
X4.275Y-3.1
X4.275Y-3.905
X4.2972Y-3.4528
X4.325Y-3.095
X4.325Y-3.225
X4.325Y-3.425
X4.35Y-2.925
X4.35Y-3.275
X4.3504Y-3.522
X4.375Y-3.1
X4.375Y-3.175
X4.4Y-4.25
X4.405Y-4.69
X4.45Y-2.95
X4.45Y-3.425
X4.465Y-5.5
X4.49Y-4.145
X4.54Y-5.425
X4.54Y-5.5
X4.54Y-5.575
X4.6Y-3.53
X4.61Y-3.42
X4.615Y-5.5
X4.705Y-4.445
X4.895Y-4.86
X4.965Y-2.455
X5.035Y-2.515
X5.065Y-2.575
X5.08Y-2.665
X5.095Y-2.76
T2
X4.475Y-3.65
X4.475Y-3.75
X4.475Y-3.85
X4.475Y-3.95
X4.575Y-3.65
X4.575Y-3.75
X4.575Y-3.85
X4.575Y-3.95
T3
X2.364Y-4.0496
X3.0459Y-3.6559
X4.1391Y-4.8492
X4.626Y-2.5185
X4.626Y-3.3059
X4.821Y-5.2429
T0
M30
