%TF.GenerationSoftware,KiCad,Pcbnew,(5.1.9-0-10_14)*%
%TF.CreationDate,2021-08-30T14:03:39+08:00*%
%TF.ProjectId,FidgetSpinner,46696467-6574-4537-9069-6e6e65722e6b,rev?*%
%TF.SameCoordinates,Original*%
%TF.FileFunction,Copper,L2,Bot*%
%TF.FilePolarity,Positive*%
%FSLAX46Y46*%
G04 Gerber Fmt 4.6, Leading zero omitted, Abs format (unit mm)*
G04 Created by KiCad (PCBNEW (5.1.9-0-10_14)) date 2021-08-30 14:03:39*
%MOMM*%
%LPD*%
G01*
G04 APERTURE LIST*
%TA.AperFunction,ComponentPad*%
%ADD10O,1.700000X1.700000*%
%TD*%
%TA.AperFunction,ComponentPad*%
%ADD11R,1.700000X1.700000*%
%TD*%
%TA.AperFunction,ComponentPad*%
%ADD12C,2.100000*%
%TD*%
%TA.AperFunction,ComponentPad*%
%ADD13R,2.100000X2.100000*%
%TD*%
%TA.AperFunction,ComponentPad*%
%ADD14C,0.100000*%
%TD*%
%TA.AperFunction,ViaPad*%
%ADD15C,0.800000*%
%TD*%
%TA.AperFunction,Conductor*%
%ADD16C,1.000000*%
%TD*%
%TA.AperFunction,Conductor*%
%ADD17C,0.400000*%
%TD*%
%TA.AperFunction,Conductor*%
%ADD18C,0.250000*%
%TD*%
%TA.AperFunction,Conductor*%
%ADD19C,0.254000*%
%TD*%
%TA.AperFunction,Conductor*%
%ADD20C,0.100000*%
%TD*%
G04 APERTURE END LIST*
D10*
%TO.P,J1,5*%
%TO.N,TX*%
X116205000Y-100330000D03*
%TO.P,J1,4*%
%TO.N,RX*%
X113665000Y-100330000D03*
%TO.P,J1,6*%
%TO.N,MISO*%
X116205000Y-97790000D03*
%TO.P,J1,3*%
%TO.N,VCC*%
X113665000Y-97790000D03*
%TO.P,J1,7*%
%TO.N,CLK*%
X116205000Y-95250000D03*
%TO.P,J1,2*%
%TO.N,MOSI*%
X113665000Y-95250000D03*
%TO.P,J1,8*%
%TO.N,RST*%
X116205000Y-92710000D03*
D11*
%TO.P,J1,1*%
%TO.N,GND*%
X113665000Y-92710000D03*
%TD*%
D12*
%TO.P,BT3,2*%
%TO.N,GND*%
X117500000Y-63970000D03*
D13*
%TO.P,BT3,1*%
%TO.N,Net-(BT1-Pad1)*%
X117500000Y-83970000D03*
%TD*%
D12*
%TO.P,BT2,2*%
%TO.N,GND*%
X122453665Y-133170000D03*
%TA.AperFunction,ComponentPad*%
D14*
%TO.P,BT2,1*%
%TO.N,Net-(BT1-Pad1)*%
G36*
X105517484Y-124604327D02*
G01*
X103698830Y-123554327D01*
X104748830Y-121735673D01*
X106567484Y-122785673D01*
X105517484Y-124604327D01*
G37*
%TD.AperFunction*%
%TD*%
D12*
%TO.P,BT1,2*%
%TO.N,GND*%
X60046335Y-102860000D03*
%TA.AperFunction,ComponentPad*%
D14*
%TO.P,BT1,1*%
%TO.N,Net-(BT1-Pad1)*%
G36*
X75932516Y-92475673D02*
G01*
X77751170Y-91425673D01*
X78801170Y-93244327D01*
X76982516Y-94294327D01*
X75932516Y-92475673D01*
G37*
%TD.AperFunction*%
%TD*%
D15*
%TO.N,GND*%
X113030000Y-86995000D03*
X109855000Y-86995000D03*
X85725000Y-86360000D03*
X87630000Y-85725000D03*
X109855000Y-81915000D03*
X100965000Y-88265000D03*
X104140000Y-90170000D03*
X106045000Y-92075000D03*
X64770000Y-88900000D03*
X60325000Y-90170000D03*
X60325000Y-92710000D03*
X63500000Y-90805000D03*
X55880000Y-94615000D03*
X54610000Y-97155000D03*
X62865000Y-110490000D03*
X70485000Y-110490000D03*
X80010000Y-110490000D03*
X81915000Y-111125000D03*
X74930000Y-93345000D03*
X72390000Y-95250000D03*
X60325000Y-99695000D03*
X55245000Y-104775000D03*
X64135000Y-102870000D03*
X67945000Y-102870000D03*
X71755000Y-102870000D03*
X76200000Y-102870000D03*
X80010000Y-103505000D03*
X83820000Y-100330000D03*
X91440000Y-94615000D03*
X89535000Y-95885000D03*
X92075000Y-107950000D03*
X95250000Y-111760000D03*
X105410000Y-111379000D03*
X97790000Y-119380000D03*
X72390000Y-88900000D03*
X69215000Y-94615000D03*
X74930000Y-97155000D03*
X78740000Y-97155000D03*
X82042000Y-97409000D03*
X81407000Y-91059000D03*
X73787000Y-89916000D03*
X63627000Y-97663000D03*
X99695000Y-92583000D03*
X91313000Y-99695000D03*
X87884000Y-102870000D03*
X127889000Y-63881000D03*
X128651000Y-65405000D03*
X129032000Y-67691000D03*
X126111000Y-62357000D03*
X129413000Y-70104000D03*
X115316000Y-137795000D03*
X113411000Y-139700000D03*
X117221000Y-139700000D03*
X115316000Y-141605000D03*
X115316000Y-139700000D03*
X111887000Y-119126000D03*
X107569000Y-130429000D03*
X124333000Y-123444000D03*
X119507000Y-112903000D03*
X114046000Y-105283000D03*
X108585000Y-99187000D03*
X107823000Y-103378000D03*
X109855000Y-78613000D03*
X102616000Y-73279000D03*
X110500000Y-89460000D03*
X106426000Y-88646000D03*
X106172000Y-78232000D03*
X117094000Y-86868000D03*
X116840000Y-89662000D03*
%TO.N,Net-(BT1-Pad1)*%
X111760000Y-107950000D03*
%TO.N,VCC*%
X93980000Y-92710000D03*
X107950000Y-86995000D03*
X113030000Y-74930000D03*
X108585000Y-78740000D03*
%TO.N,L0*%
X87630000Y-87630000D03*
X106045000Y-80010000D03*
%TO.N,L1*%
X86360000Y-88900000D03*
X102333186Y-81378186D03*
%TO.N,L2*%
X85090000Y-90170000D03*
X102235000Y-82550000D03*
%TO.N,L3*%
X83820000Y-91440000D03*
X92710000Y-91440000D03*
X98425000Y-86360000D03*
X110490000Y-83185000D03*
%TO.N,L4*%
X104140000Y-76200000D03*
X110490000Y-74295000D03*
%TO.N,CLK*%
X109147892Y-87702108D03*
X105023186Y-85476814D03*
%TO.N,MISO*%
X101600000Y-86995000D03*
X100330000Y-83820000D03*
%TO.N,RX*%
X111125000Y-80645000D03*
%TO.N,MOSI*%
X101431217Y-84330074D03*
X105735002Y-81134625D03*
%TO.N,~INT_C*%
X102235000Y-84925000D03*
X111125000Y-78740000D03*
%TD*%
D16*
%TO.N,Net-(BT1-Pad1)*%
X105133157Y-123170000D02*
X105133157Y-114576843D01*
X119380000Y-105410000D02*
X116840000Y-107950000D01*
X116840000Y-107950000D02*
X111760000Y-107950000D01*
X119380000Y-85850000D02*
X119380000Y-105410000D01*
X117500000Y-83970000D02*
X119380000Y-85850000D01*
X77366843Y-92860000D02*
X81430000Y-92860000D01*
X102870000Y-114300000D02*
X105410000Y-114300000D01*
X105410000Y-114300000D02*
X111760000Y-107950000D01*
X81430000Y-92860000D02*
X102870000Y-114300000D01*
X105133157Y-114576843D02*
X105410000Y-114300000D01*
D17*
%TO.N,VCC*%
X107784999Y-86829999D02*
X107950000Y-86995000D01*
X112395000Y-74930000D02*
X108585000Y-78740000D01*
X113030000Y-74930000D02*
X112395000Y-74930000D01*
X107950000Y-92075000D02*
X107950000Y-86995000D01*
X113665000Y-97790000D02*
X107950000Y-92075000D01*
X104140000Y-86995000D02*
X107950000Y-86995000D01*
X100330000Y-90805000D02*
X104140000Y-86995000D01*
X95885000Y-90805000D02*
X100330000Y-90805000D01*
X93980000Y-92710000D02*
X95885000Y-90805000D01*
%TO.N,L0*%
X87630000Y-87630000D02*
X91440000Y-83820000D01*
X91440000Y-83820000D02*
X93345000Y-81915000D01*
X93345000Y-81915000D02*
X95250000Y-80010000D01*
X95250000Y-80010000D02*
X106045000Y-80010000D01*
%TO.N,L1*%
X86360000Y-88900000D02*
X88900000Y-88900000D01*
X88900000Y-88900000D02*
X96520000Y-81280000D01*
X102235000Y-81280000D02*
X102333186Y-81378186D01*
X96520000Y-81280000D02*
X102235000Y-81280000D01*
%TO.N,L2*%
X85090000Y-90170000D02*
X91440000Y-90170000D01*
X99060000Y-82550000D02*
X102235000Y-82550000D01*
X91440000Y-90170000D02*
X99060000Y-82550000D01*
%TO.N,L3*%
X83820000Y-91440000D02*
X92710000Y-91440000D01*
X98425000Y-86360000D02*
X99060000Y-85725000D01*
X99060000Y-85725000D02*
X103505000Y-85725000D01*
X106045000Y-83185000D02*
X110490000Y-83185000D01*
X103505000Y-85725000D02*
X106045000Y-83185000D01*
%TO.N,L4*%
X104140000Y-76200000D02*
X104140000Y-74930000D01*
X104775000Y-74295000D02*
X110490000Y-74295000D01*
X104140000Y-74930000D02*
X104775000Y-74295000D01*
%TO.N,CLK*%
X108750001Y-86610999D02*
X107615816Y-85476814D01*
X107615816Y-85476814D02*
X105023186Y-85476814D01*
X108750001Y-87304217D02*
X108750001Y-86610999D01*
X109147892Y-87702108D02*
X108750001Y-87304217D01*
%TO.N,MISO*%
X101200001Y-87394999D02*
X97390001Y-87394999D01*
X101600000Y-86995000D02*
X101200001Y-87394999D01*
X97390001Y-87394999D02*
X97390001Y-85489999D01*
X97390001Y-85489999D02*
X99073186Y-83806814D01*
X100316814Y-83806814D02*
X100330000Y-83820000D01*
X99073186Y-83806814D02*
X100316814Y-83806814D01*
%TO.N,RX*%
X111125000Y-80645000D02*
X112395000Y-80645000D01*
X112395000Y-80645000D02*
X114935000Y-83185000D01*
X114935000Y-99060000D02*
X113665000Y-100330000D01*
X114935000Y-83185000D02*
X114935000Y-99060000D01*
D18*
%TO.N,MOSI*%
X103594626Y-83275001D02*
X105735002Y-81134625D01*
X102486290Y-83275001D02*
X103594626Y-83275001D01*
X101431217Y-84330074D02*
X102486290Y-83275001D01*
D17*
%TO.N,~INT_C*%
X107950000Y-81915000D02*
X111125000Y-78740000D01*
X102235000Y-84925000D02*
X102705000Y-84455000D01*
D18*
X106572524Y-81915000D02*
X107950000Y-81915000D01*
X104032524Y-84455000D02*
X106572524Y-81915000D01*
X102705000Y-84455000D02*
X104032524Y-84455000D01*
%TD*%
D19*
%TO.N,GND*%
X118444258Y-56382478D02*
X119853028Y-56558167D01*
X121235148Y-56882563D01*
X122574962Y-57351988D01*
X123857316Y-57961133D01*
X125067682Y-58703100D01*
X126192342Y-59569478D01*
X127218578Y-60550469D01*
X128134753Y-61634949D01*
X128930503Y-62810656D01*
X129596811Y-64064260D01*
X130126129Y-65381562D01*
X130512472Y-66747660D01*
X130751459Y-68147075D01*
X130840386Y-69563974D01*
X130778245Y-70982283D01*
X130565739Y-72385970D01*
X130205274Y-73759127D01*
X129700937Y-75086195D01*
X129058433Y-76352163D01*
X128282990Y-77545842D01*
X127578750Y-78432504D01*
X126932172Y-79202868D01*
X126921893Y-79216021D01*
X126911352Y-79228988D01*
X125551266Y-81026873D01*
X125524772Y-81064560D01*
X124293413Y-82952939D01*
X124269613Y-82992382D01*
X123172980Y-84962057D01*
X123151989Y-85003063D01*
X122195425Y-87044438D01*
X122193396Y-87049194D01*
X122177345Y-87086810D01*
X121365512Y-89189938D01*
X121350432Y-89233467D01*
X120687282Y-91388103D01*
X120675276Y-91432578D01*
X120515000Y-92120929D01*
X120515000Y-85905741D01*
X120520490Y-85849999D01*
X120515000Y-85794257D01*
X120515000Y-85794248D01*
X120498577Y-85627501D01*
X120433676Y-85413553D01*
X120328284Y-85216377D01*
X120186449Y-85043551D01*
X120143141Y-85008009D01*
X119188072Y-84052941D01*
X119188072Y-82920000D01*
X119175812Y-82795518D01*
X119139502Y-82675820D01*
X119080537Y-82565506D01*
X119001185Y-82468815D01*
X118904494Y-82389463D01*
X118794180Y-82330498D01*
X118674482Y-82294188D01*
X118550000Y-82281928D01*
X116450000Y-82281928D01*
X116325518Y-82294188D01*
X116205820Y-82330498D01*
X116095506Y-82389463D01*
X115998815Y-82468815D01*
X115919463Y-82565506D01*
X115860498Y-82675820D01*
X115824188Y-82795518D01*
X115811928Y-82920000D01*
X115811928Y-85020000D01*
X115824188Y-85144482D01*
X115860498Y-85264180D01*
X115919463Y-85374494D01*
X115998815Y-85471185D01*
X116095506Y-85550537D01*
X116205820Y-85609502D01*
X116325518Y-85645812D01*
X116450000Y-85658072D01*
X117582941Y-85658072D01*
X118245000Y-86320132D01*
X118245001Y-104939867D01*
X116369869Y-106815000D01*
X111815751Y-106815000D01*
X111759999Y-106809509D01*
X111537500Y-106831423D01*
X111492325Y-106845127D01*
X111323553Y-106896324D01*
X111126377Y-107001716D01*
X110953551Y-107143551D01*
X110918011Y-107186857D01*
X104939869Y-113165000D01*
X103340132Y-113165000D01*
X90175132Y-100000000D01*
X94220000Y-100000000D01*
X94312887Y-101032059D01*
X94588562Y-102030946D01*
X95038166Y-102964558D01*
X95647247Y-103802886D01*
X96396229Y-104518986D01*
X97261039Y-105089842D01*
X98213882Y-105497107D01*
X99224132Y-105727690D01*
X100259319Y-105774180D01*
X101286171Y-105635083D01*
X102271685Y-105314871D01*
X103184185Y-104823833D01*
X103994342Y-104177754D01*
X104676118Y-103397399D01*
X105207600Y-102507848D01*
X105571705Y-101537693D01*
X105756731Y-100518115D01*
X105756731Y-99481885D01*
X105571705Y-98462307D01*
X105207600Y-97492152D01*
X104676118Y-96602601D01*
X103994342Y-95822246D01*
X103184185Y-95176167D01*
X102271685Y-94685129D01*
X101286171Y-94364917D01*
X100259319Y-94225820D01*
X99224132Y-94272310D01*
X98213882Y-94502893D01*
X97261039Y-94910158D01*
X96396229Y-95481014D01*
X95647247Y-96197114D01*
X95038166Y-97035442D01*
X94588562Y-97969054D01*
X94312887Y-98967941D01*
X94220000Y-100000000D01*
X90175132Y-100000000D01*
X82271996Y-92096865D01*
X82236449Y-92053551D01*
X82063623Y-91911716D01*
X81866447Y-91806324D01*
X81652499Y-91741423D01*
X81485752Y-91725000D01*
X81485751Y-91725000D01*
X81430000Y-91719509D01*
X81374249Y-91725000D01*
X78660769Y-91725000D01*
X78303757Y-91106637D01*
X78230898Y-91004963D01*
X78139604Y-90919457D01*
X78033382Y-90853404D01*
X77916315Y-90809343D01*
X77792902Y-90788967D01*
X77667885Y-90793060D01*
X77546069Y-90821463D01*
X77432134Y-90873086D01*
X75613480Y-91923086D01*
X75511806Y-91995945D01*
X75426300Y-92087239D01*
X75360247Y-92193461D01*
X75316186Y-92310528D01*
X75295810Y-92433941D01*
X75299903Y-92558958D01*
X75328306Y-92680774D01*
X75379929Y-92794709D01*
X76429929Y-94613363D01*
X76502788Y-94715037D01*
X76594082Y-94800543D01*
X76700304Y-94866596D01*
X76817371Y-94910657D01*
X76940784Y-94931033D01*
X77065801Y-94926940D01*
X77187617Y-94898537D01*
X77301552Y-94846914D01*
X78777111Y-93995000D01*
X80959869Y-93995000D01*
X102028009Y-115063141D01*
X102063551Y-115106449D01*
X102211673Y-115228010D01*
X102236377Y-115248284D01*
X102433553Y-115353676D01*
X102647501Y-115418577D01*
X102870000Y-115440491D01*
X102925752Y-115435000D01*
X103998158Y-115435000D01*
X103998157Y-121759732D01*
X103146243Y-123235291D01*
X103094620Y-123349226D01*
X103066217Y-123471042D01*
X103062124Y-123596059D01*
X103082500Y-123719472D01*
X103126561Y-123836539D01*
X103192614Y-123942761D01*
X103278120Y-124034055D01*
X103379794Y-124106914D01*
X105198448Y-125156914D01*
X105312383Y-125208537D01*
X105434199Y-125236940D01*
X105559216Y-125241033D01*
X105682629Y-125220657D01*
X105799696Y-125176596D01*
X105905918Y-125110543D01*
X105997212Y-125025037D01*
X106070071Y-124923363D01*
X107120071Y-123104709D01*
X107171694Y-122990774D01*
X107200097Y-122868958D01*
X107204190Y-122743941D01*
X107183814Y-122620528D01*
X107139753Y-122503461D01*
X107073700Y-122397239D01*
X106988194Y-122305945D01*
X106886520Y-122233086D01*
X106268157Y-121876074D01*
X106268157Y-115046974D01*
X106891994Y-114423137D01*
X116720000Y-114423137D01*
X116720000Y-114636863D01*
X116761696Y-114846483D01*
X116843485Y-115043940D01*
X116962225Y-115221647D01*
X117113353Y-115372775D01*
X117291060Y-115491515D01*
X117488517Y-115573304D01*
X117698137Y-115615000D01*
X117911863Y-115615000D01*
X118121483Y-115573304D01*
X118318940Y-115491515D01*
X118496647Y-115372775D01*
X118647775Y-115221647D01*
X118766515Y-115043940D01*
X118848304Y-114846483D01*
X118890000Y-114636863D01*
X118890000Y-114423137D01*
X118848304Y-114213517D01*
X118766515Y-114016060D01*
X118647775Y-113838353D01*
X118496647Y-113687225D01*
X118318940Y-113568485D01*
X118121483Y-113486696D01*
X117911863Y-113445000D01*
X117698137Y-113445000D01*
X117488517Y-113486696D01*
X117291060Y-113568485D01*
X117113353Y-113687225D01*
X116962225Y-113838353D01*
X116843485Y-114016060D01*
X116761696Y-114213517D01*
X116720000Y-114423137D01*
X106891994Y-114423137D01*
X109891994Y-111423137D01*
X116720000Y-111423137D01*
X116720000Y-111636863D01*
X116761696Y-111846483D01*
X116843485Y-112043940D01*
X116962225Y-112221647D01*
X117113353Y-112372775D01*
X117291060Y-112491515D01*
X117488517Y-112573304D01*
X117698137Y-112615000D01*
X117911863Y-112615000D01*
X118121483Y-112573304D01*
X118318940Y-112491515D01*
X118496647Y-112372775D01*
X118647775Y-112221647D01*
X118766515Y-112043940D01*
X118848304Y-111846483D01*
X118890000Y-111636863D01*
X118890000Y-111423137D01*
X118848304Y-111213517D01*
X118766515Y-111016060D01*
X118647775Y-110838353D01*
X118496647Y-110687225D01*
X118318940Y-110568485D01*
X118121483Y-110486696D01*
X117911863Y-110445000D01*
X117698137Y-110445000D01*
X117488517Y-110486696D01*
X117291060Y-110568485D01*
X117113353Y-110687225D01*
X116962225Y-110838353D01*
X116843485Y-111016060D01*
X116761696Y-111213517D01*
X116720000Y-111423137D01*
X109891994Y-111423137D01*
X112230132Y-109085000D01*
X116784249Y-109085000D01*
X116840000Y-109090491D01*
X116895751Y-109085000D01*
X116895752Y-109085000D01*
X117062499Y-109068577D01*
X117276447Y-109003676D01*
X117473623Y-108898284D01*
X117646449Y-108756449D01*
X117681996Y-108713135D01*
X120143141Y-106251991D01*
X120157954Y-106239835D01*
X120367996Y-107331312D01*
X120373136Y-107353765D01*
X120378275Y-107376218D01*
X120957674Y-109554869D01*
X120962029Y-109569208D01*
X120971061Y-109598949D01*
X121701024Y-111731876D01*
X121717452Y-111774914D01*
X122594423Y-113851725D01*
X122603810Y-113871953D01*
X122613814Y-113893513D01*
X123633514Y-115904079D01*
X123633519Y-115904091D01*
X123655777Y-115944424D01*
X124813249Y-117878973D01*
X124828277Y-117902208D01*
X124838267Y-117917655D01*
X126127867Y-119766751D01*
X126139846Y-119782709D01*
X126155522Y-119803594D01*
X127556628Y-121540452D01*
X127562097Y-121548284D01*
X127859928Y-121896373D01*
X128699782Y-123052632D01*
X129407560Y-124283847D01*
X129980506Y-125583321D01*
X130412114Y-126936306D01*
X130697508Y-128327508D01*
X130833451Y-129741149D01*
X130818405Y-131161241D01*
X130652539Y-132571689D01*
X130337733Y-133956522D01*
X129877552Y-135300063D01*
X129277201Y-136587104D01*
X128543493Y-137803048D01*
X127684714Y-138934159D01*
X126710616Y-139967592D01*
X125632212Y-140891665D01*
X124461714Y-141695914D01*
X123212374Y-142371231D01*
X121898358Y-142909959D01*
X120534527Y-143306005D01*
X119136348Y-143554881D01*
X117719626Y-143653772D01*
X116300418Y-143601557D01*
X114894789Y-143398826D01*
X113518676Y-143047879D01*
X112187637Y-142552683D01*
X110916763Y-141918854D01*
X109720429Y-141153560D01*
X108612198Y-140265475D01*
X107604610Y-139264650D01*
X106709080Y-138162423D01*
X105935746Y-136971272D01*
X105291677Y-135701353D01*
X104877152Y-134645940D01*
X104630904Y-133972748D01*
X120962906Y-133972748D01*
X121148159Y-134248156D01*
X121383582Y-134482131D01*
X121660128Y-134665681D01*
X121967167Y-134791753D01*
X122292903Y-134855502D01*
X122503845Y-134862409D01*
X122726762Y-134679904D01*
X122363862Y-133325543D01*
X121009501Y-133688443D01*
X120962906Y-133972748D01*
X104630904Y-133972748D01*
X104531196Y-133700168D01*
X104524923Y-133684713D01*
X104518932Y-133669099D01*
X104328450Y-133220180D01*
X120761256Y-133220180D01*
X120943761Y-133443097D01*
X121627823Y-133259803D01*
X122609208Y-133259803D01*
X122972108Y-134614164D01*
X123256413Y-134660759D01*
X123531821Y-134475506D01*
X123765796Y-134240083D01*
X123949346Y-133963537D01*
X124075418Y-133656498D01*
X124139167Y-133330762D01*
X124146074Y-133119820D01*
X123963569Y-132896903D01*
X122609208Y-133259803D01*
X121627823Y-133259803D01*
X122298122Y-133080197D01*
X121935222Y-131725836D01*
X121650917Y-131679241D01*
X121375509Y-131864494D01*
X121141534Y-132099917D01*
X120957984Y-132376463D01*
X120831912Y-132683502D01*
X120768163Y-133009238D01*
X120761256Y-133220180D01*
X104328450Y-133220180D01*
X103666487Y-131660096D01*
X122180568Y-131660096D01*
X122543468Y-133014457D01*
X123897829Y-132651557D01*
X123944424Y-132367252D01*
X123759171Y-132091844D01*
X123523748Y-131857869D01*
X123247202Y-131674319D01*
X122940163Y-131548247D01*
X122614427Y-131484498D01*
X122403485Y-131477591D01*
X122180568Y-131660096D01*
X103666487Y-131660096D01*
X103638161Y-131593340D01*
X103618697Y-131551586D01*
X102595276Y-129542323D01*
X102572947Y-129502029D01*
X101411865Y-127569063D01*
X101411858Y-127569050D01*
X101386773Y-127530412D01*
X100093675Y-125683136D01*
X100089928Y-125678162D01*
X100065957Y-125646341D01*
X98647150Y-123893767D01*
X98629093Y-123872990D01*
X98616932Y-123858996D01*
X97079326Y-122209661D01*
X97046756Y-122177083D01*
X95397860Y-120639038D01*
X95397845Y-120639023D01*
X95363082Y-120608796D01*
X93610899Y-119189507D01*
X93574112Y-119161778D01*
X91727191Y-117868171D01*
X91688559Y-117843075D01*
X89755901Y-116681455D01*
X89715613Y-116659116D01*
X89715601Y-116659110D01*
X87706630Y-115635141D01*
X87664882Y-115615666D01*
X85589366Y-114734324D01*
X85566715Y-114725626D01*
X85546360Y-114717809D01*
X83414421Y-113983396D01*
X83370368Y-113969922D01*
X81192393Y-113386013D01*
X81182023Y-113383617D01*
X81147507Y-113375643D01*
X78934104Y-112945086D01*
X78888605Y-112937874D01*
X78888602Y-112937874D01*
X76650560Y-112662764D01*
X76604669Y-112658742D01*
X74352885Y-112540420D01*
X74306825Y-112539610D01*
X74306824Y-112539610D01*
X72052271Y-112578653D01*
X72006267Y-112581058D01*
X69759931Y-112777276D01*
X69714206Y-112782883D01*
X67503720Y-113132678D01*
X67192756Y-113165660D01*
X67190930Y-113166037D01*
X65774825Y-113324331D01*
X64354550Y-113331224D01*
X62941567Y-113187152D01*
X61551898Y-112893748D01*
X60201289Y-112454337D01*
X58905011Y-111873889D01*
X57677751Y-111158979D01*
X56533410Y-110317703D01*
X55484947Y-109359589D01*
X54544238Y-108295490D01*
X53721921Y-107137441D01*
X53027327Y-105898580D01*
X52468310Y-104592916D01*
X52399796Y-104369904D01*
X59773238Y-104369904D01*
X59996155Y-104552409D01*
X60327293Y-104529679D01*
X60647632Y-104442784D01*
X60944864Y-104295064D01*
X61207565Y-104092196D01*
X61425642Y-103841975D01*
X61537094Y-103662748D01*
X61490499Y-103378443D01*
X60136138Y-103015543D01*
X59773238Y-104369904D01*
X52399796Y-104369904D01*
X52051201Y-103235236D01*
X51968678Y-102809820D01*
X58353926Y-102809820D01*
X58376656Y-103140958D01*
X58463551Y-103461297D01*
X58611271Y-103758529D01*
X58814139Y-104021230D01*
X59064360Y-104239307D01*
X59243587Y-104350759D01*
X59527892Y-104304164D01*
X59890792Y-102949803D01*
X59220494Y-102770197D01*
X60201878Y-102770197D01*
X61556239Y-103133097D01*
X61738744Y-102910180D01*
X61716014Y-102579042D01*
X61629119Y-102258703D01*
X61481399Y-101961471D01*
X61278531Y-101698770D01*
X61028310Y-101480693D01*
X60849083Y-101369241D01*
X60564778Y-101415836D01*
X60201878Y-102770197D01*
X59220494Y-102770197D01*
X58536431Y-102586903D01*
X58353926Y-102809820D01*
X51968678Y-102809820D01*
X51822692Y-102057252D01*
X58555576Y-102057252D01*
X58602171Y-102341557D01*
X59956532Y-102704457D01*
X60319432Y-101350096D01*
X60096515Y-101167591D01*
X59765377Y-101190321D01*
X59445038Y-101277216D01*
X59147806Y-101424936D01*
X58885105Y-101627804D01*
X58667028Y-101878025D01*
X58555576Y-102057252D01*
X51822692Y-102057252D01*
X51780728Y-101840927D01*
X51659953Y-100425778D01*
X51690241Y-99005792D01*
X51871249Y-97597080D01*
X52200928Y-96215571D01*
X52675550Y-94876907D01*
X53289727Y-93596279D01*
X54036516Y-92388157D01*
X54907464Y-91266224D01*
X55892694Y-90243201D01*
X56981057Y-89330666D01*
X58160227Y-88538950D01*
X59416851Y-87877022D01*
X60736700Y-87352375D01*
X62104827Y-86970951D01*
X63505741Y-86737069D01*
X64923576Y-86653378D01*
X66346024Y-86721005D01*
X67465053Y-86881699D01*
X68453728Y-87058191D01*
X68470256Y-87060549D01*
X68486748Y-87063227D01*
X70725190Y-87346858D01*
X70771065Y-87351050D01*
X70771067Y-87351050D01*
X73023838Y-87477844D01*
X73069895Y-87478826D01*
X75326025Y-87448166D01*
X75372038Y-87445933D01*
X77620533Y-87257969D01*
X77620535Y-87257969D01*
X77666280Y-87252531D01*
X79896186Y-86908176D01*
X79941440Y-86899561D01*
X82141895Y-86400496D01*
X82186438Y-86388745D01*
X84346718Y-85737399D01*
X84390333Y-85722570D01*
X86499916Y-84922117D01*
X86528546Y-84910094D01*
X86542390Y-84904281D01*
X88590998Y-83958620D01*
X88632124Y-83937865D01*
X90609775Y-82851605D01*
X90610081Y-82851423D01*
X90649354Y-82828032D01*
X92339305Y-81739827D01*
X90878581Y-83200552D01*
X90878570Y-83200561D01*
X87473225Y-86605907D01*
X87328102Y-86634774D01*
X87139744Y-86712795D01*
X86970226Y-86826063D01*
X86826063Y-86970226D01*
X86712795Y-87139744D01*
X86634774Y-87328102D01*
X86595000Y-87528061D01*
X86595000Y-87731939D01*
X86628039Y-87898039D01*
X86461939Y-87865000D01*
X86258061Y-87865000D01*
X86058102Y-87904774D01*
X85869744Y-87982795D01*
X85700226Y-88096063D01*
X85556063Y-88240226D01*
X85442795Y-88409744D01*
X85364774Y-88598102D01*
X85325000Y-88798061D01*
X85325000Y-89001939D01*
X85358039Y-89168039D01*
X85191939Y-89135000D01*
X84988061Y-89135000D01*
X84788102Y-89174774D01*
X84599744Y-89252795D01*
X84430226Y-89366063D01*
X84286063Y-89510226D01*
X84172795Y-89679744D01*
X84094774Y-89868102D01*
X84055000Y-90068061D01*
X84055000Y-90271939D01*
X84088039Y-90438039D01*
X83921939Y-90405000D01*
X83718061Y-90405000D01*
X83518102Y-90444774D01*
X83329744Y-90522795D01*
X83160226Y-90636063D01*
X83016063Y-90780226D01*
X82902795Y-90949744D01*
X82824774Y-91138102D01*
X82785000Y-91338061D01*
X82785000Y-91541939D01*
X82824774Y-91741898D01*
X82902795Y-91930256D01*
X83016063Y-92099774D01*
X83160226Y-92243937D01*
X83329744Y-92357205D01*
X83518102Y-92435226D01*
X83718061Y-92475000D01*
X83921939Y-92475000D01*
X84121898Y-92435226D01*
X84310256Y-92357205D01*
X84433285Y-92275000D01*
X92096715Y-92275000D01*
X92219744Y-92357205D01*
X92408102Y-92435226D01*
X92608061Y-92475000D01*
X92811939Y-92475000D01*
X92978039Y-92441961D01*
X92945000Y-92608061D01*
X92945000Y-92811939D01*
X92984774Y-93011898D01*
X93062795Y-93200256D01*
X93176063Y-93369774D01*
X93320226Y-93513937D01*
X93489744Y-93627205D01*
X93678102Y-93705226D01*
X93878061Y-93745000D01*
X94081939Y-93745000D01*
X94281898Y-93705226D01*
X94470256Y-93627205D01*
X94639774Y-93513937D01*
X94783937Y-93369774D01*
X94897205Y-93200256D01*
X94975226Y-93011898D01*
X95004093Y-92866775D01*
X96230869Y-91640000D01*
X100288982Y-91640000D01*
X100330000Y-91644040D01*
X100371018Y-91640000D01*
X100371019Y-91640000D01*
X100493689Y-91627918D01*
X100651087Y-91580172D01*
X100796146Y-91502636D01*
X100923291Y-91398291D01*
X100949446Y-91366421D01*
X104485869Y-87830000D01*
X107115001Y-87830000D01*
X107115000Y-92033981D01*
X107110960Y-92075000D01*
X107123159Y-92198854D01*
X107127082Y-92238688D01*
X107174828Y-92396086D01*
X107252364Y-92541145D01*
X107356709Y-92668291D01*
X107388579Y-92694446D01*
X112206193Y-97512061D01*
X112180000Y-97643740D01*
X112180000Y-97936260D01*
X112237068Y-98223158D01*
X112349010Y-98493411D01*
X112511525Y-98736632D01*
X112718368Y-98943475D01*
X112892760Y-99060000D01*
X112718368Y-99176525D01*
X112511525Y-99383368D01*
X112349010Y-99626589D01*
X112237068Y-99896842D01*
X112180000Y-100183740D01*
X112180000Y-100476260D01*
X112237068Y-100763158D01*
X112349010Y-101033411D01*
X112511525Y-101276632D01*
X112718368Y-101483475D01*
X112961589Y-101645990D01*
X113231842Y-101757932D01*
X113518740Y-101815000D01*
X113811260Y-101815000D01*
X114098158Y-101757932D01*
X114368411Y-101645990D01*
X114611632Y-101483475D01*
X114818475Y-101276632D01*
X114935000Y-101102240D01*
X115051525Y-101276632D01*
X115258368Y-101483475D01*
X115501589Y-101645990D01*
X115771842Y-101757932D01*
X116058740Y-101815000D01*
X116351260Y-101815000D01*
X116638158Y-101757932D01*
X116908411Y-101645990D01*
X117151632Y-101483475D01*
X117358475Y-101276632D01*
X117520990Y-101033411D01*
X117632932Y-100763158D01*
X117690000Y-100476260D01*
X117690000Y-100183740D01*
X117632932Y-99896842D01*
X117520990Y-99626589D01*
X117358475Y-99383368D01*
X117151632Y-99176525D01*
X116977240Y-99060000D01*
X117151632Y-98943475D01*
X117358475Y-98736632D01*
X117520990Y-98493411D01*
X117632932Y-98223158D01*
X117690000Y-97936260D01*
X117690000Y-97643740D01*
X117632932Y-97356842D01*
X117520990Y-97086589D01*
X117358475Y-96843368D01*
X117151632Y-96636525D01*
X116977240Y-96520000D01*
X117151632Y-96403475D01*
X117358475Y-96196632D01*
X117520990Y-95953411D01*
X117632932Y-95683158D01*
X117690000Y-95396260D01*
X117690000Y-95103740D01*
X117632932Y-94816842D01*
X117520990Y-94546589D01*
X117358475Y-94303368D01*
X117151632Y-94096525D01*
X116977240Y-93980000D01*
X117151632Y-93863475D01*
X117358475Y-93656632D01*
X117520990Y-93413411D01*
X117632932Y-93143158D01*
X117690000Y-92856260D01*
X117690000Y-92563740D01*
X117632932Y-92276842D01*
X117520990Y-92006589D01*
X117358475Y-91763368D01*
X117151632Y-91556525D01*
X116908411Y-91394010D01*
X116638158Y-91282068D01*
X116351260Y-91225000D01*
X116058740Y-91225000D01*
X115771842Y-91282068D01*
X115770000Y-91282831D01*
X115770000Y-83226007D01*
X115774039Y-83184999D01*
X115770000Y-83143991D01*
X115770000Y-83143981D01*
X115757918Y-83021311D01*
X115710172Y-82863913D01*
X115632636Y-82718854D01*
X115528291Y-82591709D01*
X115496428Y-82565560D01*
X113014446Y-80083579D01*
X112988291Y-80051709D01*
X112861146Y-79947364D01*
X112716087Y-79869828D01*
X112558689Y-79822082D01*
X112436019Y-79810000D01*
X112436018Y-79810000D01*
X112395000Y-79805960D01*
X112353982Y-79810000D01*
X111738285Y-79810000D01*
X111615256Y-79727795D01*
X111530047Y-79692500D01*
X111615256Y-79657205D01*
X111784774Y-79543937D01*
X111928937Y-79399774D01*
X112042205Y-79230256D01*
X112120226Y-79041898D01*
X112160000Y-78841939D01*
X112160000Y-78638061D01*
X112120226Y-78438102D01*
X112042205Y-78249744D01*
X111928937Y-78080226D01*
X111784774Y-77936063D01*
X111615256Y-77822795D01*
X111426898Y-77744774D01*
X111226939Y-77705000D01*
X111023061Y-77705000D01*
X110823102Y-77744774D01*
X110717247Y-77788621D01*
X112623833Y-75882036D01*
X112728102Y-75925226D01*
X112928061Y-75965000D01*
X113131939Y-75965000D01*
X113331898Y-75925226D01*
X113520256Y-75847205D01*
X113689774Y-75733937D01*
X113833937Y-75589774D01*
X113947205Y-75420256D01*
X114025226Y-75231898D01*
X114065000Y-75031939D01*
X114065000Y-74828061D01*
X114025226Y-74628102D01*
X113947205Y-74439744D01*
X113833937Y-74270226D01*
X113689774Y-74126063D01*
X113520256Y-74012795D01*
X113331898Y-73934774D01*
X113131939Y-73895000D01*
X112928061Y-73895000D01*
X112728102Y-73934774D01*
X112539744Y-74012795D01*
X112419195Y-74093343D01*
X112395000Y-74090960D01*
X112353982Y-74095000D01*
X112353981Y-74095000D01*
X112231311Y-74107082D01*
X112121730Y-74140323D01*
X112073913Y-74154828D01*
X111928854Y-74232364D01*
X111835975Y-74308588D01*
X111801709Y-74336709D01*
X111775563Y-74368568D01*
X111441380Y-74702751D01*
X111485226Y-74596898D01*
X111525000Y-74396939D01*
X111525000Y-74193061D01*
X111485226Y-73993102D01*
X111407205Y-73804744D01*
X111293937Y-73635226D01*
X111149774Y-73491063D01*
X110980256Y-73377795D01*
X110791898Y-73299774D01*
X110591939Y-73260000D01*
X110388061Y-73260000D01*
X110188102Y-73299774D01*
X109999744Y-73377795D01*
X109876715Y-73460000D01*
X104816018Y-73460000D01*
X104775000Y-73455960D01*
X104733982Y-73460000D01*
X104733981Y-73460000D01*
X104611311Y-73472082D01*
X104501611Y-73505359D01*
X104453913Y-73519828D01*
X104308854Y-73597364D01*
X104238543Y-73655067D01*
X104181709Y-73701709D01*
X104155562Y-73733569D01*
X103578573Y-74310559D01*
X103546710Y-74336709D01*
X103505732Y-74386641D01*
X103442364Y-74463855D01*
X103364828Y-74608914D01*
X103317082Y-74766312D01*
X103300960Y-74930000D01*
X103305001Y-74971028D01*
X103305000Y-75586714D01*
X103222795Y-75709744D01*
X103144774Y-75898102D01*
X103105000Y-76098061D01*
X103105000Y-76301939D01*
X103144774Y-76501898D01*
X103222795Y-76690256D01*
X103336063Y-76859774D01*
X103480226Y-77003937D01*
X103649744Y-77117205D01*
X103838102Y-77195226D01*
X104038061Y-77235000D01*
X104241939Y-77235000D01*
X104441898Y-77195226D01*
X104630256Y-77117205D01*
X104799774Y-77003937D01*
X104943937Y-76859774D01*
X105057205Y-76690256D01*
X105135226Y-76501898D01*
X105175000Y-76301939D01*
X105175000Y-76098061D01*
X105135226Y-75898102D01*
X105057205Y-75709744D01*
X104975000Y-75586715D01*
X104975000Y-75275868D01*
X105120868Y-75130000D01*
X109876715Y-75130000D01*
X109999744Y-75212205D01*
X110188102Y-75290226D01*
X110388061Y-75330000D01*
X110591939Y-75330000D01*
X110791898Y-75290226D01*
X110897752Y-75246380D01*
X108428225Y-77715907D01*
X108283102Y-77744774D01*
X108094744Y-77822795D01*
X107925226Y-77936063D01*
X107781063Y-78080226D01*
X107667795Y-78249744D01*
X107589774Y-78438102D01*
X107550000Y-78638061D01*
X107550000Y-78841939D01*
X107589774Y-79041898D01*
X107667795Y-79230256D01*
X107781063Y-79399774D01*
X107925226Y-79543937D01*
X108094744Y-79657205D01*
X108283102Y-79735226D01*
X108483061Y-79775000D01*
X108686939Y-79775000D01*
X108886898Y-79735226D01*
X108992754Y-79691379D01*
X107529133Y-81155000D01*
X106770002Y-81155000D01*
X106770002Y-81032686D01*
X106730228Y-80832727D01*
X106717269Y-80801442D01*
X106848937Y-80669774D01*
X106962205Y-80500256D01*
X107040226Y-80311898D01*
X107080000Y-80111939D01*
X107080000Y-79908061D01*
X107040226Y-79708102D01*
X106962205Y-79519744D01*
X106848937Y-79350226D01*
X106704774Y-79206063D01*
X106535256Y-79092795D01*
X106346898Y-79014774D01*
X106146939Y-78975000D01*
X105943061Y-78975000D01*
X105743102Y-79014774D01*
X105554744Y-79092795D01*
X105431715Y-79175000D01*
X95616238Y-79175000D01*
X96135979Y-78726710D01*
X96169791Y-78695423D01*
X97771417Y-77106129D01*
X97802965Y-77072559D01*
X99289827Y-75375411D01*
X99307419Y-75353857D01*
X99318956Y-75339723D01*
X100683807Y-73542992D01*
X100710376Y-73505359D01*
X100710384Y-73505346D01*
X101946570Y-71617797D01*
X101970449Y-71578402D01*
X103071962Y-69609205D01*
X103093035Y-69568240D01*
X104054500Y-67527003D01*
X104072663Y-67484668D01*
X104884576Y-65393753D01*
X104892183Y-65376291D01*
X104968223Y-65141066D01*
X116508539Y-65141066D01*
X116610339Y-65410579D01*
X116908477Y-65556463D01*
X117229346Y-65641380D01*
X117560617Y-65662066D01*
X117889557Y-65617728D01*
X118203527Y-65510069D01*
X118389661Y-65410579D01*
X118491461Y-65141066D01*
X117500000Y-64149605D01*
X116508539Y-65141066D01*
X104968223Y-65141066D01*
X105033122Y-64940306D01*
X105436406Y-64030617D01*
X115807934Y-64030617D01*
X115852272Y-64359557D01*
X115959931Y-64673527D01*
X116059421Y-64859661D01*
X116328934Y-64961461D01*
X117320395Y-63970000D01*
X117679605Y-63970000D01*
X118671066Y-64961461D01*
X118940579Y-64859661D01*
X119086463Y-64561523D01*
X119171380Y-64240654D01*
X119192066Y-63909383D01*
X119147728Y-63580443D01*
X119040069Y-63266473D01*
X118940579Y-63080339D01*
X118671066Y-62978539D01*
X117679605Y-63970000D01*
X117320395Y-63970000D01*
X116328934Y-62978539D01*
X116059421Y-63080339D01*
X115913537Y-63378477D01*
X115828620Y-63699346D01*
X115807934Y-64030617D01*
X105436406Y-64030617D01*
X105608737Y-63641890D01*
X106095588Y-62798934D01*
X116508539Y-62798934D01*
X117500000Y-63790395D01*
X118491461Y-62798934D01*
X118389661Y-62529421D01*
X118091523Y-62383537D01*
X117770654Y-62298620D01*
X117439383Y-62277934D01*
X117110443Y-62322272D01*
X116796473Y-62429931D01*
X116610339Y-62529421D01*
X116508539Y-62798934D01*
X106095588Y-62798934D01*
X106318762Y-62412521D01*
X107155411Y-61265556D01*
X108109193Y-60214003D01*
X109169331Y-59269744D01*
X110323797Y-58443495D01*
X111559522Y-57744603D01*
X112862523Y-57180980D01*
X114218043Y-56759008D01*
X115610725Y-56483470D01*
X117024798Y-56357485D01*
X118444258Y-56382478D01*
%TA.AperFunction,Conductor*%
D20*
G36*
X118444258Y-56382478D02*
G01*
X119853028Y-56558167D01*
X121235148Y-56882563D01*
X122574962Y-57351988D01*
X123857316Y-57961133D01*
X125067682Y-58703100D01*
X126192342Y-59569478D01*
X127218578Y-60550469D01*
X128134753Y-61634949D01*
X128930503Y-62810656D01*
X129596811Y-64064260D01*
X130126129Y-65381562D01*
X130512472Y-66747660D01*
X130751459Y-68147075D01*
X130840386Y-69563974D01*
X130778245Y-70982283D01*
X130565739Y-72385970D01*
X130205274Y-73759127D01*
X129700937Y-75086195D01*
X129058433Y-76352163D01*
X128282990Y-77545842D01*
X127578750Y-78432504D01*
X126932172Y-79202868D01*
X126921893Y-79216021D01*
X126911352Y-79228988D01*
X125551266Y-81026873D01*
X125524772Y-81064560D01*
X124293413Y-82952939D01*
X124269613Y-82992382D01*
X123172980Y-84962057D01*
X123151989Y-85003063D01*
X122195425Y-87044438D01*
X122193396Y-87049194D01*
X122177345Y-87086810D01*
X121365512Y-89189938D01*
X121350432Y-89233467D01*
X120687282Y-91388103D01*
X120675276Y-91432578D01*
X120515000Y-92120929D01*
X120515000Y-85905741D01*
X120520490Y-85849999D01*
X120515000Y-85794257D01*
X120515000Y-85794248D01*
X120498577Y-85627501D01*
X120433676Y-85413553D01*
X120328284Y-85216377D01*
X120186449Y-85043551D01*
X120143141Y-85008009D01*
X119188072Y-84052941D01*
X119188072Y-82920000D01*
X119175812Y-82795518D01*
X119139502Y-82675820D01*
X119080537Y-82565506D01*
X119001185Y-82468815D01*
X118904494Y-82389463D01*
X118794180Y-82330498D01*
X118674482Y-82294188D01*
X118550000Y-82281928D01*
X116450000Y-82281928D01*
X116325518Y-82294188D01*
X116205820Y-82330498D01*
X116095506Y-82389463D01*
X115998815Y-82468815D01*
X115919463Y-82565506D01*
X115860498Y-82675820D01*
X115824188Y-82795518D01*
X115811928Y-82920000D01*
X115811928Y-85020000D01*
X115824188Y-85144482D01*
X115860498Y-85264180D01*
X115919463Y-85374494D01*
X115998815Y-85471185D01*
X116095506Y-85550537D01*
X116205820Y-85609502D01*
X116325518Y-85645812D01*
X116450000Y-85658072D01*
X117582941Y-85658072D01*
X118245000Y-86320132D01*
X118245001Y-104939867D01*
X116369869Y-106815000D01*
X111815751Y-106815000D01*
X111759999Y-106809509D01*
X111537500Y-106831423D01*
X111492325Y-106845127D01*
X111323553Y-106896324D01*
X111126377Y-107001716D01*
X110953551Y-107143551D01*
X110918011Y-107186857D01*
X104939869Y-113165000D01*
X103340132Y-113165000D01*
X90175132Y-100000000D01*
X94220000Y-100000000D01*
X94312887Y-101032059D01*
X94588562Y-102030946D01*
X95038166Y-102964558D01*
X95647247Y-103802886D01*
X96396229Y-104518986D01*
X97261039Y-105089842D01*
X98213882Y-105497107D01*
X99224132Y-105727690D01*
X100259319Y-105774180D01*
X101286171Y-105635083D01*
X102271685Y-105314871D01*
X103184185Y-104823833D01*
X103994342Y-104177754D01*
X104676118Y-103397399D01*
X105207600Y-102507848D01*
X105571705Y-101537693D01*
X105756731Y-100518115D01*
X105756731Y-99481885D01*
X105571705Y-98462307D01*
X105207600Y-97492152D01*
X104676118Y-96602601D01*
X103994342Y-95822246D01*
X103184185Y-95176167D01*
X102271685Y-94685129D01*
X101286171Y-94364917D01*
X100259319Y-94225820D01*
X99224132Y-94272310D01*
X98213882Y-94502893D01*
X97261039Y-94910158D01*
X96396229Y-95481014D01*
X95647247Y-96197114D01*
X95038166Y-97035442D01*
X94588562Y-97969054D01*
X94312887Y-98967941D01*
X94220000Y-100000000D01*
X90175132Y-100000000D01*
X82271996Y-92096865D01*
X82236449Y-92053551D01*
X82063623Y-91911716D01*
X81866447Y-91806324D01*
X81652499Y-91741423D01*
X81485752Y-91725000D01*
X81485751Y-91725000D01*
X81430000Y-91719509D01*
X81374249Y-91725000D01*
X78660769Y-91725000D01*
X78303757Y-91106637D01*
X78230898Y-91004963D01*
X78139604Y-90919457D01*
X78033382Y-90853404D01*
X77916315Y-90809343D01*
X77792902Y-90788967D01*
X77667885Y-90793060D01*
X77546069Y-90821463D01*
X77432134Y-90873086D01*
X75613480Y-91923086D01*
X75511806Y-91995945D01*
X75426300Y-92087239D01*
X75360247Y-92193461D01*
X75316186Y-92310528D01*
X75295810Y-92433941D01*
X75299903Y-92558958D01*
X75328306Y-92680774D01*
X75379929Y-92794709D01*
X76429929Y-94613363D01*
X76502788Y-94715037D01*
X76594082Y-94800543D01*
X76700304Y-94866596D01*
X76817371Y-94910657D01*
X76940784Y-94931033D01*
X77065801Y-94926940D01*
X77187617Y-94898537D01*
X77301552Y-94846914D01*
X78777111Y-93995000D01*
X80959869Y-93995000D01*
X102028009Y-115063141D01*
X102063551Y-115106449D01*
X102211673Y-115228010D01*
X102236377Y-115248284D01*
X102433553Y-115353676D01*
X102647501Y-115418577D01*
X102870000Y-115440491D01*
X102925752Y-115435000D01*
X103998158Y-115435000D01*
X103998157Y-121759732D01*
X103146243Y-123235291D01*
X103094620Y-123349226D01*
X103066217Y-123471042D01*
X103062124Y-123596059D01*
X103082500Y-123719472D01*
X103126561Y-123836539D01*
X103192614Y-123942761D01*
X103278120Y-124034055D01*
X103379794Y-124106914D01*
X105198448Y-125156914D01*
X105312383Y-125208537D01*
X105434199Y-125236940D01*
X105559216Y-125241033D01*
X105682629Y-125220657D01*
X105799696Y-125176596D01*
X105905918Y-125110543D01*
X105997212Y-125025037D01*
X106070071Y-124923363D01*
X107120071Y-123104709D01*
X107171694Y-122990774D01*
X107200097Y-122868958D01*
X107204190Y-122743941D01*
X107183814Y-122620528D01*
X107139753Y-122503461D01*
X107073700Y-122397239D01*
X106988194Y-122305945D01*
X106886520Y-122233086D01*
X106268157Y-121876074D01*
X106268157Y-115046974D01*
X106891994Y-114423137D01*
X116720000Y-114423137D01*
X116720000Y-114636863D01*
X116761696Y-114846483D01*
X116843485Y-115043940D01*
X116962225Y-115221647D01*
X117113353Y-115372775D01*
X117291060Y-115491515D01*
X117488517Y-115573304D01*
X117698137Y-115615000D01*
X117911863Y-115615000D01*
X118121483Y-115573304D01*
X118318940Y-115491515D01*
X118496647Y-115372775D01*
X118647775Y-115221647D01*
X118766515Y-115043940D01*
X118848304Y-114846483D01*
X118890000Y-114636863D01*
X118890000Y-114423137D01*
X118848304Y-114213517D01*
X118766515Y-114016060D01*
X118647775Y-113838353D01*
X118496647Y-113687225D01*
X118318940Y-113568485D01*
X118121483Y-113486696D01*
X117911863Y-113445000D01*
X117698137Y-113445000D01*
X117488517Y-113486696D01*
X117291060Y-113568485D01*
X117113353Y-113687225D01*
X116962225Y-113838353D01*
X116843485Y-114016060D01*
X116761696Y-114213517D01*
X116720000Y-114423137D01*
X106891994Y-114423137D01*
X109891994Y-111423137D01*
X116720000Y-111423137D01*
X116720000Y-111636863D01*
X116761696Y-111846483D01*
X116843485Y-112043940D01*
X116962225Y-112221647D01*
X117113353Y-112372775D01*
X117291060Y-112491515D01*
X117488517Y-112573304D01*
X117698137Y-112615000D01*
X117911863Y-112615000D01*
X118121483Y-112573304D01*
X118318940Y-112491515D01*
X118496647Y-112372775D01*
X118647775Y-112221647D01*
X118766515Y-112043940D01*
X118848304Y-111846483D01*
X118890000Y-111636863D01*
X118890000Y-111423137D01*
X118848304Y-111213517D01*
X118766515Y-111016060D01*
X118647775Y-110838353D01*
X118496647Y-110687225D01*
X118318940Y-110568485D01*
X118121483Y-110486696D01*
X117911863Y-110445000D01*
X117698137Y-110445000D01*
X117488517Y-110486696D01*
X117291060Y-110568485D01*
X117113353Y-110687225D01*
X116962225Y-110838353D01*
X116843485Y-111016060D01*
X116761696Y-111213517D01*
X116720000Y-111423137D01*
X109891994Y-111423137D01*
X112230132Y-109085000D01*
X116784249Y-109085000D01*
X116840000Y-109090491D01*
X116895751Y-109085000D01*
X116895752Y-109085000D01*
X117062499Y-109068577D01*
X117276447Y-109003676D01*
X117473623Y-108898284D01*
X117646449Y-108756449D01*
X117681996Y-108713135D01*
X120143141Y-106251991D01*
X120157954Y-106239835D01*
X120367996Y-107331312D01*
X120373136Y-107353765D01*
X120378275Y-107376218D01*
X120957674Y-109554869D01*
X120962029Y-109569208D01*
X120971061Y-109598949D01*
X121701024Y-111731876D01*
X121717452Y-111774914D01*
X122594423Y-113851725D01*
X122603810Y-113871953D01*
X122613814Y-113893513D01*
X123633514Y-115904079D01*
X123633519Y-115904091D01*
X123655777Y-115944424D01*
X124813249Y-117878973D01*
X124828277Y-117902208D01*
X124838267Y-117917655D01*
X126127867Y-119766751D01*
X126139846Y-119782709D01*
X126155522Y-119803594D01*
X127556628Y-121540452D01*
X127562097Y-121548284D01*
X127859928Y-121896373D01*
X128699782Y-123052632D01*
X129407560Y-124283847D01*
X129980506Y-125583321D01*
X130412114Y-126936306D01*
X130697508Y-128327508D01*
X130833451Y-129741149D01*
X130818405Y-131161241D01*
X130652539Y-132571689D01*
X130337733Y-133956522D01*
X129877552Y-135300063D01*
X129277201Y-136587104D01*
X128543493Y-137803048D01*
X127684714Y-138934159D01*
X126710616Y-139967592D01*
X125632212Y-140891665D01*
X124461714Y-141695914D01*
X123212374Y-142371231D01*
X121898358Y-142909959D01*
X120534527Y-143306005D01*
X119136348Y-143554881D01*
X117719626Y-143653772D01*
X116300418Y-143601557D01*
X114894789Y-143398826D01*
X113518676Y-143047879D01*
X112187637Y-142552683D01*
X110916763Y-141918854D01*
X109720429Y-141153560D01*
X108612198Y-140265475D01*
X107604610Y-139264650D01*
X106709080Y-138162423D01*
X105935746Y-136971272D01*
X105291677Y-135701353D01*
X104877152Y-134645940D01*
X104630904Y-133972748D01*
X120962906Y-133972748D01*
X121148159Y-134248156D01*
X121383582Y-134482131D01*
X121660128Y-134665681D01*
X121967167Y-134791753D01*
X122292903Y-134855502D01*
X122503845Y-134862409D01*
X122726762Y-134679904D01*
X122363862Y-133325543D01*
X121009501Y-133688443D01*
X120962906Y-133972748D01*
X104630904Y-133972748D01*
X104531196Y-133700168D01*
X104524923Y-133684713D01*
X104518932Y-133669099D01*
X104328450Y-133220180D01*
X120761256Y-133220180D01*
X120943761Y-133443097D01*
X121627823Y-133259803D01*
X122609208Y-133259803D01*
X122972108Y-134614164D01*
X123256413Y-134660759D01*
X123531821Y-134475506D01*
X123765796Y-134240083D01*
X123949346Y-133963537D01*
X124075418Y-133656498D01*
X124139167Y-133330762D01*
X124146074Y-133119820D01*
X123963569Y-132896903D01*
X122609208Y-133259803D01*
X121627823Y-133259803D01*
X122298122Y-133080197D01*
X121935222Y-131725836D01*
X121650917Y-131679241D01*
X121375509Y-131864494D01*
X121141534Y-132099917D01*
X120957984Y-132376463D01*
X120831912Y-132683502D01*
X120768163Y-133009238D01*
X120761256Y-133220180D01*
X104328450Y-133220180D01*
X103666487Y-131660096D01*
X122180568Y-131660096D01*
X122543468Y-133014457D01*
X123897829Y-132651557D01*
X123944424Y-132367252D01*
X123759171Y-132091844D01*
X123523748Y-131857869D01*
X123247202Y-131674319D01*
X122940163Y-131548247D01*
X122614427Y-131484498D01*
X122403485Y-131477591D01*
X122180568Y-131660096D01*
X103666487Y-131660096D01*
X103638161Y-131593340D01*
X103618697Y-131551586D01*
X102595276Y-129542323D01*
X102572947Y-129502029D01*
X101411865Y-127569063D01*
X101411858Y-127569050D01*
X101386773Y-127530412D01*
X100093675Y-125683136D01*
X100089928Y-125678162D01*
X100065957Y-125646341D01*
X98647150Y-123893767D01*
X98629093Y-123872990D01*
X98616932Y-123858996D01*
X97079326Y-122209661D01*
X97046756Y-122177083D01*
X95397860Y-120639038D01*
X95397845Y-120639023D01*
X95363082Y-120608796D01*
X93610899Y-119189507D01*
X93574112Y-119161778D01*
X91727191Y-117868171D01*
X91688559Y-117843075D01*
X89755901Y-116681455D01*
X89715613Y-116659116D01*
X89715601Y-116659110D01*
X87706630Y-115635141D01*
X87664882Y-115615666D01*
X85589366Y-114734324D01*
X85566715Y-114725626D01*
X85546360Y-114717809D01*
X83414421Y-113983396D01*
X83370368Y-113969922D01*
X81192393Y-113386013D01*
X81182023Y-113383617D01*
X81147507Y-113375643D01*
X78934104Y-112945086D01*
X78888605Y-112937874D01*
X78888602Y-112937874D01*
X76650560Y-112662764D01*
X76604669Y-112658742D01*
X74352885Y-112540420D01*
X74306825Y-112539610D01*
X74306824Y-112539610D01*
X72052271Y-112578653D01*
X72006267Y-112581058D01*
X69759931Y-112777276D01*
X69714206Y-112782883D01*
X67503720Y-113132678D01*
X67192756Y-113165660D01*
X67190930Y-113166037D01*
X65774825Y-113324331D01*
X64354550Y-113331224D01*
X62941567Y-113187152D01*
X61551898Y-112893748D01*
X60201289Y-112454337D01*
X58905011Y-111873889D01*
X57677751Y-111158979D01*
X56533410Y-110317703D01*
X55484947Y-109359589D01*
X54544238Y-108295490D01*
X53721921Y-107137441D01*
X53027327Y-105898580D01*
X52468310Y-104592916D01*
X52399796Y-104369904D01*
X59773238Y-104369904D01*
X59996155Y-104552409D01*
X60327293Y-104529679D01*
X60647632Y-104442784D01*
X60944864Y-104295064D01*
X61207565Y-104092196D01*
X61425642Y-103841975D01*
X61537094Y-103662748D01*
X61490499Y-103378443D01*
X60136138Y-103015543D01*
X59773238Y-104369904D01*
X52399796Y-104369904D01*
X52051201Y-103235236D01*
X51968678Y-102809820D01*
X58353926Y-102809820D01*
X58376656Y-103140958D01*
X58463551Y-103461297D01*
X58611271Y-103758529D01*
X58814139Y-104021230D01*
X59064360Y-104239307D01*
X59243587Y-104350759D01*
X59527892Y-104304164D01*
X59890792Y-102949803D01*
X59220494Y-102770197D01*
X60201878Y-102770197D01*
X61556239Y-103133097D01*
X61738744Y-102910180D01*
X61716014Y-102579042D01*
X61629119Y-102258703D01*
X61481399Y-101961471D01*
X61278531Y-101698770D01*
X61028310Y-101480693D01*
X60849083Y-101369241D01*
X60564778Y-101415836D01*
X60201878Y-102770197D01*
X59220494Y-102770197D01*
X58536431Y-102586903D01*
X58353926Y-102809820D01*
X51968678Y-102809820D01*
X51822692Y-102057252D01*
X58555576Y-102057252D01*
X58602171Y-102341557D01*
X59956532Y-102704457D01*
X60319432Y-101350096D01*
X60096515Y-101167591D01*
X59765377Y-101190321D01*
X59445038Y-101277216D01*
X59147806Y-101424936D01*
X58885105Y-101627804D01*
X58667028Y-101878025D01*
X58555576Y-102057252D01*
X51822692Y-102057252D01*
X51780728Y-101840927D01*
X51659953Y-100425778D01*
X51690241Y-99005792D01*
X51871249Y-97597080D01*
X52200928Y-96215571D01*
X52675550Y-94876907D01*
X53289727Y-93596279D01*
X54036516Y-92388157D01*
X54907464Y-91266224D01*
X55892694Y-90243201D01*
X56981057Y-89330666D01*
X58160227Y-88538950D01*
X59416851Y-87877022D01*
X60736700Y-87352375D01*
X62104827Y-86970951D01*
X63505741Y-86737069D01*
X64923576Y-86653378D01*
X66346024Y-86721005D01*
X67465053Y-86881699D01*
X68453728Y-87058191D01*
X68470256Y-87060549D01*
X68486748Y-87063227D01*
X70725190Y-87346858D01*
X70771065Y-87351050D01*
X70771067Y-87351050D01*
X73023838Y-87477844D01*
X73069895Y-87478826D01*
X75326025Y-87448166D01*
X75372038Y-87445933D01*
X77620533Y-87257969D01*
X77620535Y-87257969D01*
X77666280Y-87252531D01*
X79896186Y-86908176D01*
X79941440Y-86899561D01*
X82141895Y-86400496D01*
X82186438Y-86388745D01*
X84346718Y-85737399D01*
X84390333Y-85722570D01*
X86499916Y-84922117D01*
X86528546Y-84910094D01*
X86542390Y-84904281D01*
X88590998Y-83958620D01*
X88632124Y-83937865D01*
X90609775Y-82851605D01*
X90610081Y-82851423D01*
X90649354Y-82828032D01*
X92339305Y-81739827D01*
X90878581Y-83200552D01*
X90878570Y-83200561D01*
X87473225Y-86605907D01*
X87328102Y-86634774D01*
X87139744Y-86712795D01*
X86970226Y-86826063D01*
X86826063Y-86970226D01*
X86712795Y-87139744D01*
X86634774Y-87328102D01*
X86595000Y-87528061D01*
X86595000Y-87731939D01*
X86628039Y-87898039D01*
X86461939Y-87865000D01*
X86258061Y-87865000D01*
X86058102Y-87904774D01*
X85869744Y-87982795D01*
X85700226Y-88096063D01*
X85556063Y-88240226D01*
X85442795Y-88409744D01*
X85364774Y-88598102D01*
X85325000Y-88798061D01*
X85325000Y-89001939D01*
X85358039Y-89168039D01*
X85191939Y-89135000D01*
X84988061Y-89135000D01*
X84788102Y-89174774D01*
X84599744Y-89252795D01*
X84430226Y-89366063D01*
X84286063Y-89510226D01*
X84172795Y-89679744D01*
X84094774Y-89868102D01*
X84055000Y-90068061D01*
X84055000Y-90271939D01*
X84088039Y-90438039D01*
X83921939Y-90405000D01*
X83718061Y-90405000D01*
X83518102Y-90444774D01*
X83329744Y-90522795D01*
X83160226Y-90636063D01*
X83016063Y-90780226D01*
X82902795Y-90949744D01*
X82824774Y-91138102D01*
X82785000Y-91338061D01*
X82785000Y-91541939D01*
X82824774Y-91741898D01*
X82902795Y-91930256D01*
X83016063Y-92099774D01*
X83160226Y-92243937D01*
X83329744Y-92357205D01*
X83518102Y-92435226D01*
X83718061Y-92475000D01*
X83921939Y-92475000D01*
X84121898Y-92435226D01*
X84310256Y-92357205D01*
X84433285Y-92275000D01*
X92096715Y-92275000D01*
X92219744Y-92357205D01*
X92408102Y-92435226D01*
X92608061Y-92475000D01*
X92811939Y-92475000D01*
X92978039Y-92441961D01*
X92945000Y-92608061D01*
X92945000Y-92811939D01*
X92984774Y-93011898D01*
X93062795Y-93200256D01*
X93176063Y-93369774D01*
X93320226Y-93513937D01*
X93489744Y-93627205D01*
X93678102Y-93705226D01*
X93878061Y-93745000D01*
X94081939Y-93745000D01*
X94281898Y-93705226D01*
X94470256Y-93627205D01*
X94639774Y-93513937D01*
X94783937Y-93369774D01*
X94897205Y-93200256D01*
X94975226Y-93011898D01*
X95004093Y-92866775D01*
X96230869Y-91640000D01*
X100288982Y-91640000D01*
X100330000Y-91644040D01*
X100371018Y-91640000D01*
X100371019Y-91640000D01*
X100493689Y-91627918D01*
X100651087Y-91580172D01*
X100796146Y-91502636D01*
X100923291Y-91398291D01*
X100949446Y-91366421D01*
X104485869Y-87830000D01*
X107115001Y-87830000D01*
X107115000Y-92033981D01*
X107110960Y-92075000D01*
X107123159Y-92198854D01*
X107127082Y-92238688D01*
X107174828Y-92396086D01*
X107252364Y-92541145D01*
X107356709Y-92668291D01*
X107388579Y-92694446D01*
X112206193Y-97512061D01*
X112180000Y-97643740D01*
X112180000Y-97936260D01*
X112237068Y-98223158D01*
X112349010Y-98493411D01*
X112511525Y-98736632D01*
X112718368Y-98943475D01*
X112892760Y-99060000D01*
X112718368Y-99176525D01*
X112511525Y-99383368D01*
X112349010Y-99626589D01*
X112237068Y-99896842D01*
X112180000Y-100183740D01*
X112180000Y-100476260D01*
X112237068Y-100763158D01*
X112349010Y-101033411D01*
X112511525Y-101276632D01*
X112718368Y-101483475D01*
X112961589Y-101645990D01*
X113231842Y-101757932D01*
X113518740Y-101815000D01*
X113811260Y-101815000D01*
X114098158Y-101757932D01*
X114368411Y-101645990D01*
X114611632Y-101483475D01*
X114818475Y-101276632D01*
X114935000Y-101102240D01*
X115051525Y-101276632D01*
X115258368Y-101483475D01*
X115501589Y-101645990D01*
X115771842Y-101757932D01*
X116058740Y-101815000D01*
X116351260Y-101815000D01*
X116638158Y-101757932D01*
X116908411Y-101645990D01*
X117151632Y-101483475D01*
X117358475Y-101276632D01*
X117520990Y-101033411D01*
X117632932Y-100763158D01*
X117690000Y-100476260D01*
X117690000Y-100183740D01*
X117632932Y-99896842D01*
X117520990Y-99626589D01*
X117358475Y-99383368D01*
X117151632Y-99176525D01*
X116977240Y-99060000D01*
X117151632Y-98943475D01*
X117358475Y-98736632D01*
X117520990Y-98493411D01*
X117632932Y-98223158D01*
X117690000Y-97936260D01*
X117690000Y-97643740D01*
X117632932Y-97356842D01*
X117520990Y-97086589D01*
X117358475Y-96843368D01*
X117151632Y-96636525D01*
X116977240Y-96520000D01*
X117151632Y-96403475D01*
X117358475Y-96196632D01*
X117520990Y-95953411D01*
X117632932Y-95683158D01*
X117690000Y-95396260D01*
X117690000Y-95103740D01*
X117632932Y-94816842D01*
X117520990Y-94546589D01*
X117358475Y-94303368D01*
X117151632Y-94096525D01*
X116977240Y-93980000D01*
X117151632Y-93863475D01*
X117358475Y-93656632D01*
X117520990Y-93413411D01*
X117632932Y-93143158D01*
X117690000Y-92856260D01*
X117690000Y-92563740D01*
X117632932Y-92276842D01*
X117520990Y-92006589D01*
X117358475Y-91763368D01*
X117151632Y-91556525D01*
X116908411Y-91394010D01*
X116638158Y-91282068D01*
X116351260Y-91225000D01*
X116058740Y-91225000D01*
X115771842Y-91282068D01*
X115770000Y-91282831D01*
X115770000Y-83226007D01*
X115774039Y-83184999D01*
X115770000Y-83143991D01*
X115770000Y-83143981D01*
X115757918Y-83021311D01*
X115710172Y-82863913D01*
X115632636Y-82718854D01*
X115528291Y-82591709D01*
X115496428Y-82565560D01*
X113014446Y-80083579D01*
X112988291Y-80051709D01*
X112861146Y-79947364D01*
X112716087Y-79869828D01*
X112558689Y-79822082D01*
X112436019Y-79810000D01*
X112436018Y-79810000D01*
X112395000Y-79805960D01*
X112353982Y-79810000D01*
X111738285Y-79810000D01*
X111615256Y-79727795D01*
X111530047Y-79692500D01*
X111615256Y-79657205D01*
X111784774Y-79543937D01*
X111928937Y-79399774D01*
X112042205Y-79230256D01*
X112120226Y-79041898D01*
X112160000Y-78841939D01*
X112160000Y-78638061D01*
X112120226Y-78438102D01*
X112042205Y-78249744D01*
X111928937Y-78080226D01*
X111784774Y-77936063D01*
X111615256Y-77822795D01*
X111426898Y-77744774D01*
X111226939Y-77705000D01*
X111023061Y-77705000D01*
X110823102Y-77744774D01*
X110717247Y-77788621D01*
X112623833Y-75882036D01*
X112728102Y-75925226D01*
X112928061Y-75965000D01*
X113131939Y-75965000D01*
X113331898Y-75925226D01*
X113520256Y-75847205D01*
X113689774Y-75733937D01*
X113833937Y-75589774D01*
X113947205Y-75420256D01*
X114025226Y-75231898D01*
X114065000Y-75031939D01*
X114065000Y-74828061D01*
X114025226Y-74628102D01*
X113947205Y-74439744D01*
X113833937Y-74270226D01*
X113689774Y-74126063D01*
X113520256Y-74012795D01*
X113331898Y-73934774D01*
X113131939Y-73895000D01*
X112928061Y-73895000D01*
X112728102Y-73934774D01*
X112539744Y-74012795D01*
X112419195Y-74093343D01*
X112395000Y-74090960D01*
X112353982Y-74095000D01*
X112353981Y-74095000D01*
X112231311Y-74107082D01*
X112121730Y-74140323D01*
X112073913Y-74154828D01*
X111928854Y-74232364D01*
X111835975Y-74308588D01*
X111801709Y-74336709D01*
X111775563Y-74368568D01*
X111441380Y-74702751D01*
X111485226Y-74596898D01*
X111525000Y-74396939D01*
X111525000Y-74193061D01*
X111485226Y-73993102D01*
X111407205Y-73804744D01*
X111293937Y-73635226D01*
X111149774Y-73491063D01*
X110980256Y-73377795D01*
X110791898Y-73299774D01*
X110591939Y-73260000D01*
X110388061Y-73260000D01*
X110188102Y-73299774D01*
X109999744Y-73377795D01*
X109876715Y-73460000D01*
X104816018Y-73460000D01*
X104775000Y-73455960D01*
X104733982Y-73460000D01*
X104733981Y-73460000D01*
X104611311Y-73472082D01*
X104501611Y-73505359D01*
X104453913Y-73519828D01*
X104308854Y-73597364D01*
X104238543Y-73655067D01*
X104181709Y-73701709D01*
X104155562Y-73733569D01*
X103578573Y-74310559D01*
X103546710Y-74336709D01*
X103505732Y-74386641D01*
X103442364Y-74463855D01*
X103364828Y-74608914D01*
X103317082Y-74766312D01*
X103300960Y-74930000D01*
X103305001Y-74971028D01*
X103305000Y-75586714D01*
X103222795Y-75709744D01*
X103144774Y-75898102D01*
X103105000Y-76098061D01*
X103105000Y-76301939D01*
X103144774Y-76501898D01*
X103222795Y-76690256D01*
X103336063Y-76859774D01*
X103480226Y-77003937D01*
X103649744Y-77117205D01*
X103838102Y-77195226D01*
X104038061Y-77235000D01*
X104241939Y-77235000D01*
X104441898Y-77195226D01*
X104630256Y-77117205D01*
X104799774Y-77003937D01*
X104943937Y-76859774D01*
X105057205Y-76690256D01*
X105135226Y-76501898D01*
X105175000Y-76301939D01*
X105175000Y-76098061D01*
X105135226Y-75898102D01*
X105057205Y-75709744D01*
X104975000Y-75586715D01*
X104975000Y-75275868D01*
X105120868Y-75130000D01*
X109876715Y-75130000D01*
X109999744Y-75212205D01*
X110188102Y-75290226D01*
X110388061Y-75330000D01*
X110591939Y-75330000D01*
X110791898Y-75290226D01*
X110897752Y-75246380D01*
X108428225Y-77715907D01*
X108283102Y-77744774D01*
X108094744Y-77822795D01*
X107925226Y-77936063D01*
X107781063Y-78080226D01*
X107667795Y-78249744D01*
X107589774Y-78438102D01*
X107550000Y-78638061D01*
X107550000Y-78841939D01*
X107589774Y-79041898D01*
X107667795Y-79230256D01*
X107781063Y-79399774D01*
X107925226Y-79543937D01*
X108094744Y-79657205D01*
X108283102Y-79735226D01*
X108483061Y-79775000D01*
X108686939Y-79775000D01*
X108886898Y-79735226D01*
X108992754Y-79691379D01*
X107529133Y-81155000D01*
X106770002Y-81155000D01*
X106770002Y-81032686D01*
X106730228Y-80832727D01*
X106717269Y-80801442D01*
X106848937Y-80669774D01*
X106962205Y-80500256D01*
X107040226Y-80311898D01*
X107080000Y-80111939D01*
X107080000Y-79908061D01*
X107040226Y-79708102D01*
X106962205Y-79519744D01*
X106848937Y-79350226D01*
X106704774Y-79206063D01*
X106535256Y-79092795D01*
X106346898Y-79014774D01*
X106146939Y-78975000D01*
X105943061Y-78975000D01*
X105743102Y-79014774D01*
X105554744Y-79092795D01*
X105431715Y-79175000D01*
X95616238Y-79175000D01*
X96135979Y-78726710D01*
X96169791Y-78695423D01*
X97771417Y-77106129D01*
X97802965Y-77072559D01*
X99289827Y-75375411D01*
X99307419Y-75353857D01*
X99318956Y-75339723D01*
X100683807Y-73542992D01*
X100710376Y-73505359D01*
X100710384Y-73505346D01*
X101946570Y-71617797D01*
X101970449Y-71578402D01*
X103071962Y-69609205D01*
X103093035Y-69568240D01*
X104054500Y-67527003D01*
X104072663Y-67484668D01*
X104884576Y-65393753D01*
X104892183Y-65376291D01*
X104968223Y-65141066D01*
X116508539Y-65141066D01*
X116610339Y-65410579D01*
X116908477Y-65556463D01*
X117229346Y-65641380D01*
X117560617Y-65662066D01*
X117889557Y-65617728D01*
X118203527Y-65510069D01*
X118389661Y-65410579D01*
X118491461Y-65141066D01*
X117500000Y-64149605D01*
X116508539Y-65141066D01*
X104968223Y-65141066D01*
X105033122Y-64940306D01*
X105436406Y-64030617D01*
X115807934Y-64030617D01*
X115852272Y-64359557D01*
X115959931Y-64673527D01*
X116059421Y-64859661D01*
X116328934Y-64961461D01*
X117320395Y-63970000D01*
X117679605Y-63970000D01*
X118671066Y-64961461D01*
X118940579Y-64859661D01*
X119086463Y-64561523D01*
X119171380Y-64240654D01*
X119192066Y-63909383D01*
X119147728Y-63580443D01*
X119040069Y-63266473D01*
X118940579Y-63080339D01*
X118671066Y-62978539D01*
X117679605Y-63970000D01*
X117320395Y-63970000D01*
X116328934Y-62978539D01*
X116059421Y-63080339D01*
X115913537Y-63378477D01*
X115828620Y-63699346D01*
X115807934Y-64030617D01*
X105436406Y-64030617D01*
X105608737Y-63641890D01*
X106095588Y-62798934D01*
X116508539Y-62798934D01*
X117500000Y-63790395D01*
X118491461Y-62798934D01*
X118389661Y-62529421D01*
X118091523Y-62383537D01*
X117770654Y-62298620D01*
X117439383Y-62277934D01*
X117110443Y-62322272D01*
X116796473Y-62429931D01*
X116610339Y-62529421D01*
X116508539Y-62798934D01*
X106095588Y-62798934D01*
X106318762Y-62412521D01*
X107155411Y-61265556D01*
X108109193Y-60214003D01*
X109169331Y-59269744D01*
X110323797Y-58443495D01*
X111559522Y-57744603D01*
X112862523Y-57180980D01*
X114218043Y-56759008D01*
X115610725Y-56483470D01*
X117024798Y-56357485D01*
X118444258Y-56382478D01*
G37*
%TD.AperFunction*%
D19*
X110129774Y-80946898D02*
X110207795Y-81135256D01*
X110321063Y-81304774D01*
X110465226Y-81448937D01*
X110634744Y-81562205D01*
X110823102Y-81640226D01*
X111023061Y-81680000D01*
X111226939Y-81680000D01*
X111426898Y-81640226D01*
X111615256Y-81562205D01*
X111738285Y-81480000D01*
X112049133Y-81480000D01*
X114100000Y-83530868D01*
X114100001Y-91224187D01*
X113950750Y-91225000D01*
X113792000Y-91383750D01*
X113792000Y-92583000D01*
X113812000Y-92583000D01*
X113812000Y-92837000D01*
X113792000Y-92837000D01*
X113792000Y-92857000D01*
X113538000Y-92857000D01*
X113538000Y-92837000D01*
X112338750Y-92837000D01*
X112180000Y-92995750D01*
X112176928Y-93560000D01*
X112189188Y-93684482D01*
X112225498Y-93804180D01*
X112284463Y-93914494D01*
X112363815Y-94011185D01*
X112460506Y-94090537D01*
X112570820Y-94149502D01*
X112643380Y-94171513D01*
X112511525Y-94303368D01*
X112349010Y-94546589D01*
X112237068Y-94816842D01*
X112180000Y-95103740D01*
X112180000Y-95124132D01*
X108915868Y-91860000D01*
X112176928Y-91860000D01*
X112180000Y-92424250D01*
X112338750Y-92583000D01*
X113538000Y-92583000D01*
X113538000Y-91383750D01*
X113379250Y-91225000D01*
X112815000Y-91221928D01*
X112690518Y-91234188D01*
X112570820Y-91270498D01*
X112460506Y-91329463D01*
X112363815Y-91408815D01*
X112284463Y-91505506D01*
X112225498Y-91615820D01*
X112189188Y-91735518D01*
X112176928Y-91860000D01*
X108915868Y-91860000D01*
X108785000Y-91729133D01*
X108785000Y-88672069D01*
X108845994Y-88697334D01*
X109045953Y-88737108D01*
X109249831Y-88737108D01*
X109449790Y-88697334D01*
X109638148Y-88619313D01*
X109807666Y-88506045D01*
X109951829Y-88361882D01*
X110065097Y-88192364D01*
X110143118Y-88004006D01*
X110182892Y-87804047D01*
X110182892Y-87600169D01*
X110143118Y-87400210D01*
X110065097Y-87211852D01*
X109951829Y-87042334D01*
X109807666Y-86898171D01*
X109638148Y-86784903D01*
X109585001Y-86762889D01*
X109585001Y-86652017D01*
X109589041Y-86610999D01*
X109577830Y-86497167D01*
X109572919Y-86447310D01*
X109525173Y-86289912D01*
X109447637Y-86144853D01*
X109434848Y-86129270D01*
X109369440Y-86049569D01*
X109369438Y-86049567D01*
X109343292Y-86017708D01*
X109311433Y-85991562D01*
X108235261Y-84915392D01*
X108209107Y-84883523D01*
X108081962Y-84779178D01*
X107936903Y-84701642D01*
X107779505Y-84653896D01*
X107656835Y-84641814D01*
X107656834Y-84641814D01*
X107615816Y-84637774D01*
X107574798Y-84641814D01*
X105769054Y-84641814D01*
X106390868Y-84020000D01*
X109876715Y-84020000D01*
X109999744Y-84102205D01*
X110188102Y-84180226D01*
X110388061Y-84220000D01*
X110591939Y-84220000D01*
X110791898Y-84180226D01*
X110980256Y-84102205D01*
X111149774Y-83988937D01*
X111293937Y-83844774D01*
X111407205Y-83675256D01*
X111485226Y-83486898D01*
X111525000Y-83286939D01*
X111525000Y-83083061D01*
X111485226Y-82883102D01*
X111407205Y-82694744D01*
X111293937Y-82525226D01*
X111149774Y-82381063D01*
X110980256Y-82267795D01*
X110791898Y-82189774D01*
X110591939Y-82150000D01*
X110388061Y-82150000D01*
X110188102Y-82189774D01*
X109999744Y-82267795D01*
X109876715Y-82350000D01*
X108695867Y-82350000D01*
X110124663Y-80921204D01*
X110129774Y-80946898D01*
%TA.AperFunction,Conductor*%
D20*
G36*
X110129774Y-80946898D02*
G01*
X110207795Y-81135256D01*
X110321063Y-81304774D01*
X110465226Y-81448937D01*
X110634744Y-81562205D01*
X110823102Y-81640226D01*
X111023061Y-81680000D01*
X111226939Y-81680000D01*
X111426898Y-81640226D01*
X111615256Y-81562205D01*
X111738285Y-81480000D01*
X112049133Y-81480000D01*
X114100000Y-83530868D01*
X114100001Y-91224187D01*
X113950750Y-91225000D01*
X113792000Y-91383750D01*
X113792000Y-92583000D01*
X113812000Y-92583000D01*
X113812000Y-92837000D01*
X113792000Y-92837000D01*
X113792000Y-92857000D01*
X113538000Y-92857000D01*
X113538000Y-92837000D01*
X112338750Y-92837000D01*
X112180000Y-92995750D01*
X112176928Y-93560000D01*
X112189188Y-93684482D01*
X112225498Y-93804180D01*
X112284463Y-93914494D01*
X112363815Y-94011185D01*
X112460506Y-94090537D01*
X112570820Y-94149502D01*
X112643380Y-94171513D01*
X112511525Y-94303368D01*
X112349010Y-94546589D01*
X112237068Y-94816842D01*
X112180000Y-95103740D01*
X112180000Y-95124132D01*
X108915868Y-91860000D01*
X112176928Y-91860000D01*
X112180000Y-92424250D01*
X112338750Y-92583000D01*
X113538000Y-92583000D01*
X113538000Y-91383750D01*
X113379250Y-91225000D01*
X112815000Y-91221928D01*
X112690518Y-91234188D01*
X112570820Y-91270498D01*
X112460506Y-91329463D01*
X112363815Y-91408815D01*
X112284463Y-91505506D01*
X112225498Y-91615820D01*
X112189188Y-91735518D01*
X112176928Y-91860000D01*
X108915868Y-91860000D01*
X108785000Y-91729133D01*
X108785000Y-88672069D01*
X108845994Y-88697334D01*
X109045953Y-88737108D01*
X109249831Y-88737108D01*
X109449790Y-88697334D01*
X109638148Y-88619313D01*
X109807666Y-88506045D01*
X109951829Y-88361882D01*
X110065097Y-88192364D01*
X110143118Y-88004006D01*
X110182892Y-87804047D01*
X110182892Y-87600169D01*
X110143118Y-87400210D01*
X110065097Y-87211852D01*
X109951829Y-87042334D01*
X109807666Y-86898171D01*
X109638148Y-86784903D01*
X109585001Y-86762889D01*
X109585001Y-86652017D01*
X109589041Y-86610999D01*
X109577830Y-86497167D01*
X109572919Y-86447310D01*
X109525173Y-86289912D01*
X109447637Y-86144853D01*
X109434848Y-86129270D01*
X109369440Y-86049569D01*
X109369438Y-86049567D01*
X109343292Y-86017708D01*
X109311433Y-85991562D01*
X108235261Y-84915392D01*
X108209107Y-84883523D01*
X108081962Y-84779178D01*
X107936903Y-84701642D01*
X107779505Y-84653896D01*
X107656835Y-84641814D01*
X107656834Y-84641814D01*
X107615816Y-84637774D01*
X107574798Y-84641814D01*
X105769054Y-84641814D01*
X106390868Y-84020000D01*
X109876715Y-84020000D01*
X109999744Y-84102205D01*
X110188102Y-84180226D01*
X110388061Y-84220000D01*
X110591939Y-84220000D01*
X110791898Y-84180226D01*
X110980256Y-84102205D01*
X111149774Y-83988937D01*
X111293937Y-83844774D01*
X111407205Y-83675256D01*
X111485226Y-83486898D01*
X111525000Y-83286939D01*
X111525000Y-83083061D01*
X111485226Y-82883102D01*
X111407205Y-82694744D01*
X111293937Y-82525226D01*
X111149774Y-82381063D01*
X110980256Y-82267795D01*
X110791898Y-82189774D01*
X110591939Y-82150000D01*
X110388061Y-82150000D01*
X110188102Y-82189774D01*
X109999744Y-82267795D01*
X109876715Y-82350000D01*
X108695867Y-82350000D01*
X110124663Y-80921204D01*
X110129774Y-80946898D01*
G37*
%TD.AperFunction*%
D19*
X96555001Y-87353980D02*
X96550961Y-87394999D01*
X96567083Y-87558688D01*
X96614829Y-87716086D01*
X96692365Y-87861145D01*
X96757974Y-87941090D01*
X96796710Y-87988290D01*
X96923855Y-88092635D01*
X97068914Y-88170171D01*
X97226312Y-88217917D01*
X97390001Y-88234039D01*
X97431019Y-88229999D01*
X101158983Y-88229999D01*
X101200001Y-88234039D01*
X101241019Y-88229999D01*
X101241020Y-88229999D01*
X101363690Y-88217917D01*
X101521088Y-88170171D01*
X101666147Y-88092635D01*
X101755434Y-88019359D01*
X101901898Y-87990226D01*
X102007752Y-87946379D01*
X99984133Y-89970000D01*
X95926018Y-89970000D01*
X95885000Y-89965960D01*
X95721311Y-89982082D01*
X95563913Y-90029828D01*
X95418854Y-90107364D01*
X95337981Y-90173735D01*
X95291709Y-90211709D01*
X95265563Y-90243568D01*
X93823225Y-91685907D01*
X93711961Y-91708039D01*
X93745000Y-91541939D01*
X93745000Y-91338061D01*
X93705226Y-91138102D01*
X93627205Y-90949744D01*
X93513937Y-90780226D01*
X93369774Y-90636063D01*
X93200256Y-90522795D01*
X93011898Y-90444774D01*
X92811939Y-90405000D01*
X92608061Y-90405000D01*
X92408102Y-90444774D01*
X92302246Y-90488621D01*
X96555002Y-86235866D01*
X96555001Y-87353980D01*
%TA.AperFunction,Conductor*%
D20*
G36*
X96555001Y-87353980D02*
G01*
X96550961Y-87394999D01*
X96567083Y-87558688D01*
X96614829Y-87716086D01*
X96692365Y-87861145D01*
X96757974Y-87941090D01*
X96796710Y-87988290D01*
X96923855Y-88092635D01*
X97068914Y-88170171D01*
X97226312Y-88217917D01*
X97390001Y-88234039D01*
X97431019Y-88229999D01*
X101158983Y-88229999D01*
X101200001Y-88234039D01*
X101241019Y-88229999D01*
X101241020Y-88229999D01*
X101363690Y-88217917D01*
X101521088Y-88170171D01*
X101666147Y-88092635D01*
X101755434Y-88019359D01*
X101901898Y-87990226D01*
X102007752Y-87946379D01*
X99984133Y-89970000D01*
X95926018Y-89970000D01*
X95885000Y-89965960D01*
X95721311Y-89982082D01*
X95563913Y-90029828D01*
X95418854Y-90107364D01*
X95337981Y-90173735D01*
X95291709Y-90211709D01*
X95265563Y-90243568D01*
X93823225Y-91685907D01*
X93711961Y-91708039D01*
X93745000Y-91541939D01*
X93745000Y-91338061D01*
X93705226Y-91138102D01*
X93627205Y-90949744D01*
X93513937Y-90780226D01*
X93369774Y-90636063D01*
X93200256Y-90522795D01*
X93011898Y-90444774D01*
X92811939Y-90405000D01*
X92608061Y-90405000D01*
X92408102Y-90444774D01*
X92302246Y-90488621D01*
X96555002Y-86235866D01*
X96555001Y-87353980D01*
G37*
%TD.AperFunction*%
D19*
X110129774Y-78438102D02*
X110100908Y-78583225D01*
X109536379Y-79147753D01*
X109580226Y-79041898D01*
X109609093Y-78896775D01*
X110173621Y-78332246D01*
X110129774Y-78438102D01*
%TA.AperFunction,Conductor*%
D20*
G36*
X110129774Y-78438102D02*
G01*
X110100908Y-78583225D01*
X109536379Y-79147753D01*
X109580226Y-79041898D01*
X109609093Y-78896775D01*
X110173621Y-78332246D01*
X110129774Y-78438102D01*
G37*
%TD.AperFunction*%
%TD*%
M02*
